<svg width="113" height="93" viewBox="0 0 113 93" fill="none" xmlns="http://www.w3.org/2000/svg">
<path d="M104.923 0.00416821C102.889 0.0694066 100.956 1.0688 99.5328 2.79124L41.6563 71.3649L12.6446 44.7714C11.8305 44.0241 10.9001 43.4742 9.90665 43.153C8.91316 42.8317 7.87599 42.7455 6.85437 42.8992C5.83274 43.0528 4.84666 43.4433 3.95244 44.0485C3.05821 44.6537 2.27335 45.4617 1.64266 46.4263C1.01197 47.3909 0.547809 48.4932 0.276674 49.6703C0.00553955 50.8474 -0.0672567 52.0763 0.0624406 53.2867C0.192138 54.4972 0.521789 55.6655 1.03257 56.725C1.54336 57.7845 2.22527 58.7144 3.03938 59.4617L37.5398 91.0486C39.0462 92.4339 40.9269 93.1213 42.8301 92.9824C44.7333 92.8435 46.5286 91.8876 47.8801 90.2938L110.608 15.9718C111.746 14.6688 112.524 12.9886 112.841 11.1518C113.158 9.31496 112.998 7.40743 112.383 5.68004C111.769 3.95264 110.727 2.48614 109.395 1.47312C108.064 0.460102 106.505 -0.0519722 104.923 0.00416821Z" fill="#2760CE"/>
<path d="M104.923 0.00416821C102.889 0.0694066 100.956 1.0688 99.5328 2.79124L41.6563 71.3649L12.6446 44.7714C11.8305 44.0241 10.9001 43.4742 9.90665 43.153C8.91316 42.8317 7.87599 42.7455 6.85437 42.8992C5.83274 43.0528 4.84666 43.4433 3.95244 44.0485C3.05821 44.6537 2.27335 45.4617 1.64266 46.4263C1.01197 47.3909 0.547809 48.4932 0.276674 49.6703C0.00553955 50.8474 -0.0672567 52.0763 0.0624406 53.2867C0.192138 54.4972 0.521789 55.6655 1.03257 56.725C1.54336 57.7845 2.22527 58.7144 3.03938 59.4617L37.5398 91.0486C39.0462 92.4339 40.9269 93.1213 42.8301 92.9824C44.7333 92.8435 46.5286 91.8876 47.8801 90.2938L110.608 15.9718C111.746 14.6688 112.524 12.9886 112.841 11.1518C113.158 9.31496 112.998 7.40743 112.383 5.68004C111.769 3.95264 110.727 2.48614 109.395 1.47312C108.064 0.460102 106.505 -0.0519722 104.923 0.00416821Z" fill="url(#paint0_linear)"/>
<defs>
<linearGradient id="paint0_linear" x1="56.5" y1="0" x2="56.5" y2="93" gradientUnits="userSpaceOnUse">
<stop stop-color="#22949B"/>
<stop offset="1" stop-color="#1FB1BA" stop-opacity="0"/>
</linearGradient>
</defs>
</svg>
