<?xml version="1.0" encoding="utf-8"?>
<!-- Generator: Adobe Illustrator 23.0.3, SVG Export Plug-In . SVG Version: 6.00 Build 0)  -->
<svg version="1.1" id="Слой_1" xmlns="http://www.w3.org/2000/svg" xmlns:xlink="http://www.w3.org/1999/xlink" x="0px" y="0px"
	 viewBox="0 0 183.8 183.9" style="enable-background:new 0 0 183.8 183.9;" xml:space="preserve">
<g>
	<g>
		<path d="M158.6,162.5c-14.9,0-29.7,0-44.6,0c-14.9,0-29.7,0-44.6,0c-14.8,0-29.7,0-44.5,0c-1.3,0-2.1-0.4-2.9-1.5
			c-0.2-0.3-0.4-0.5-0.5-0.8l-0.1-0.3v-1.2l0-0.1c0.6-1.6,1.9-2.4,3.9-2.4c0.6,0,1.2,0,1.8,0c0.6,0,1.2,0,1.8,0c0.6,0,1.2,0,1.8,0
			c0,0,0-0.1,0-0.2c-0.1-7.2-0.1-14.5-0.1-21.6c0-0.3,0-0.4,0-0.4c0,0,0,0,0,0c0,0-0.1,0-0.2-0.1c-4.4-1.5-7.2-4.4-8.5-9.1
			c-0.2-0.5-0.3-1.1-0.4-1.5l0-0.2c-0.2-0.6-0.2-1.4-0.2-2.1v-0.1l0-0.1c0.1-0.5,0.2-1.1,0.4-1.7c1.4-5.4,6.4-9.4,11.8-9.4
			c0.1,0,0.3,0,0.4,0c6.3,0.3,11.2,4.6,12.1,10.6c1,6-2.7,11.9-8.6,13.6c-0.5,0.2-0.5,0.2-0.5,0.7c0,7.4,0,14.3-0.1,21.5
			c0,0,0,0,0,0c0,0,49.7,0,49.7,0c0,0,0-7.8,0-7.8c0-0.2,0-0.3,0-0.3l0,0c0,0-0.1,0-0.3-0.1c-4.3-1.4-7.1-4.2-8.5-8.3
			c-1.1-3.2-0.8-6.6,0.8-9.6c1.6-3.1,4.5-5.3,7.8-6.2c1-0.3,2.1-0.4,3.2-0.4c5.8,0,10.9,4.1,12.2,9.8c1.3,6.1-2.3,12.5-8.2,14.5
			c-0.4,0.1-0.7,0.3-0.8,0.3c0,0,0,0.5,0,0.9v7h56.5v-12.5c0-0.3,0-0.3-0.2-0.4c-3.6-1.4-5.8-4.1-6.5-7.8c-0.9-4.6,1.8-9.3,6.2-11
			c1.2-0.5,2.5-0.7,3.8-0.7c3.3,0,6.3,1.6,8.2,4.2c1.7,2.5,2.3,5.6,1.6,8.5c-0.7,2.8-2.7,5.1-5.5,6.5c-1.1,0.6-1.3,1-1.2,2
			c0.1,3.9,0.1,7.6,0,11.4c0,0,0,0,0,0c0,0,0,0,0,0c0.3,0,0.7,0,1,0c0.3,0,0.7,0,1,0c0.3,0,0.6,0,0.9,0c0.2,0,0.3,0,0.4,0
			c1.7,0,2.9,0.8,3.5,2.3l0.1,0.2v1.3l-0.1,0.2C161.8,161.8,160.6,162.5,158.6,162.5L158.6,162.5z M89.4,130.3
			c-1.6,0-3.1,0.6-4.2,1.8c-1.1,1.1-1.7,2.6-1.6,4.1c0,3.5,2.6,6.2,6.1,6.3c2.9,0,6-2.5,6-6.2C95.7,132.8,93,130.3,89.4,130.3z
			 M152.7,130.3c-2.4,0-3.8,1.4-3.8,3.7c0,2.1,1.7,3.8,3.7,3.8c2.1,0,3.8-1.8,3.8-3.8c0-1.8-1.8-3.6-3.5-3.6L152.7,130.3z
			 M33.7,116.1c-4.1,0.1-6.1,3.2-6.2,6.2c0,3.4,2.7,6,6.3,6l0.2,0c1.5,0,2.9-0.6,3.9-1.8c1.1-1.2,1.7-2.7,1.7-4.4
			c0.1-1.4-0.5-2.8-1.6-4C36.9,116.9,35.2,116.1,33.7,116.1z"/>
		<path d="M126.9,153.4c-1.7,0-2.9-1-2.9-2.5c0-0.8-0.1-1.6-0.1-2.3c-0.1-1.6-0.2-3.2-0.2-4.9L123.5,85c0,0,0-6.9,0-7c0,0,0,0-0.1,0
			c-5.2-1.3-10.3-2.5-15.4-3.8c-5.1-1.3-10.1-2.5-15.2-3.8v47.1c0,1.5-0.9,2.2-1.6,2.6c-0.5,0.3-1,0.4-1.6,0.4
			c-0.6,0-1.1-0.1-1.6-0.4c-0.9-0.6-1.6-1.3-1.6-2.7v-51c0-1.8,1.2-3.1,3-3.1c0.3,0,0.6,0,0.9,0.1l16.5,3.9c6.5,1.6,13.1,3.3,19.4,5
			c0.8,0.2,1.4,0.5,2.1,0.8c0.2,0.1,0.5,0.2,0.8,0.4l0.1,0c0.7,0.4,1,1.1,1,2c0,5.9,0,11.8,0,17.7c0,5.9,0,11.7,0,17.6V145
			c0,2-0.2,4.1-0.4,6.1C129.7,152.1,129.1,153.4,126.9,153.4z"/>
		<path d="M154.8,120.7c-1,0-2.4-0.5-2.9-1.4c-0.2-0.4-0.2-0.8-0.2-1.2l0-0.2c-0.1-7.7-0.2-15.7-0.2-23.5c0-0.1,0-0.2,0-0.2
			c0,0,0,0,0,0c0,0-0.1,0-0.2-0.1c-1.5-0.6-3-1.1-4.5-1.7c-3.4-1.3-7-2.6-10.5-4l-0.6-0.2c-2.2-0.8-2.5-1.1-2.5-3.3
			c0-0.3,0-0.6,0-0.9c-0.1-4.3-0.1-8.5-0.1-13c0-3.8,0-7.6,0-11.4c0-3.8-0.1-7.6-0.1-11.4c0-0.3,0-0.6,0-0.9
			c-0.9,0.2-1.8,0.4-2.6,0.7c-3.1,0.8-6.3,1.6-9.4,2.4c-3.1,0.8-6.2,1.5-9.3,2.3c-0.1,0-0.1,0-0.2,0c0,0,0,0.1,0,0.1
			c0,1.5,0,3,0,4.5c0,1.5,0,3,0,4.5c0,1.4-0.6,2.4-1.8,2.9c-0.3,0.2-0.7,0.3-1.1,0.3c-1.4,0-3-1-3.1-2.6c-0.1-3.9-0.2-8.3-0.2-12.5
			c0-1.6,1.6-2.3,2.1-2.5c1.3-0.4,2.5-0.8,3.7-1.1c3.7-0.9,7.4-1.9,11-2.8c3.7-0.9,7.3-1.8,11-2.8c0.1,0,0.2-0.1,0.2-0.1v-2.2
			c0.1-1.8,1.3-3,2.9-3c0.5,0,1,0.1,1.5,0.3c1.6,0.7,1.6,2.2,1.6,2.7l0,0.2c0.1,3.3,0.2,6.4,0.2,9.6c0.1,11.4,0.1,23,0.1,34.3
			c0,0.5,0,0.5,0.4,0.6c5,1.9,10.2,3.8,15.2,5.8l0.7,0.3c1.6,0.6,2.4,1.9,2.3,3.7c0,4.1-0.1,8.3-0.1,12.4c0,4.2,0,8.4-0.1,12.5
			c0,1.5-0.7,2.4-2.1,2.8C155.4,120.6,155.1,120.7,154.8,120.7z"/>
		<path d="M52.5,83.5c-1.7,0-3-0.9-3.1-2.3c-0.2-0.9-0.2-1.6-0.2-2.4c0-5.3,0-10.8-0.1-16.2c0-1.9,0.8-3.2,2.5-4.1
			c1.1-0.5,2.2-1.1,3.3-1.7c1.1-0.6,2.2-1.2,3.3-1.7c0.2-0.1,0.2-0.2,0.2-0.3c0-3,0.1-6,0.1-8.9c0-2.9,0.1-5.9,0.1-8.8
			c0-2.1,0.8-3.4,2.7-4.4c2.4-1.1,4.7-2.3,7-3.5c1.3-0.7,2.6-1.4,3.9-2c0.3-0.2,0.3-0.2,0.3-0.4v-2.3c0.1-2,1.4-3.4,3.1-3.4
			c1.6,0,3.2,1.5,3.3,3.1l0,2.7c0,0.2,0,0.2,0.1,0.2l11.7,6c1.3,0.6,1.9,1.6,1.9,3.2c0,3.5,0,7,0,10.5c0,3.5,0,7,0,10.5
			c0,1.3-1.6,2.6-3,2.7c-0.1,0-0.2,0-0.3,0c-1.4,0-2.7-1.1-3-2.4c-0.1-0.9-0.2-1.8-0.2-2.8c0.2-2.5,0.2-5.1,0.2-7.5v-9.2
			c0-0.2,0-0.2,0-0.2l0,0l-0.1,0c-1.8-0.9-3.5-1.7-5.3-2.6c-1.7-0.9-3.5-1.7-5.2-2.6c-0.1,0-0.1,0-0.2,0s-0.1,0-0.2,0
			c-1.4,0.7-2.8,1.4-4.1,2c-2.1,1-4.2,2.1-6.4,3.1c0,0,0,0,0,0c0,0.1,0,0.2,0,0.3c0,2.8,0,5.6-0.1,8.5c0,2.8,0,5.6,0,8.4
			c0,3.4-0.2,3.8-3.3,5.4c-1.9,1-3.8,2-5.8,3c-0.2,0.1-0.2,0.1-0.2,0.1c0,0,0,0.1,0,0.4l-0.3,15.7c0,0.4,0,0.8-0.1,1.3
			C55,82.7,54.2,83.5,52.5,83.5z"/>
		<path d="M61.5,153.4c-0.5,0-1-0.1-1.5-0.4c-0.4-0.2-0.9-0.8-0.9-1.5c0-0.2-0.1-0.5-0.1-0.7c-0.1-0.6-0.2-1.2-0.2-1.9
			c-0.1-6-0.2-12.2-0.2-18.2V92.9H36.8c0,0.1,0,0.2,0,0.2v10.7c0,1.4-1.2,2.6-2.8,2.8c-0.2,0-0.4,0.1-0.6,0.1
			c-1.3,0-2.3-0.8-2.6-2.1c-0.2-0.7-0.3-1.6-0.3-2.5c0-4.4,0-8.5-0.1-12.8c0-1.4,1.9-2.9,3.1-2.9h28.3c1.5,0,3,1.5,3,3v57.9
			c0,0.5,0,1.1-0.1,1.6c0,0.5,0,1,0,1.5C64.6,152.1,63.1,153.4,61.5,153.4z"/>
		<path d="M70.9,153.4c-1.5,0-2.8-1.1-2.9-2.7c-0.1-1.2,0-2.4,0-3.5c0-0.6,0-1.1,0-1.7v-4.8c0-1.7,1.1-2.9,2.8-2.9c0,0,0.2,0,0.3,0
			c1.7,0,2.9,1,3,2.6c0.4,3,0.4,6.3,0,10.3C73.8,152.3,72.5,153.4,70.9,153.4z"/>
		<path d="M42.8,153.4c-1.6,0-2.8-1.1-2.9-2.7c-0.4-3-0.4-6.3,0-10.2c0.1-1.7,1.1-2.6,2.8-2.6c1.7,0,3,1.1,3.1,2.8
			c0.1,1.2,0.1,2.4,0.1,3.6c0.1,0.5,0.1,0.9,0,1.5v4.6c0,1.7-1.1,2.9-2.9,3C43,153.4,42.9,153.4,42.8,153.4z"/>
		<path d="M108.2,153.4c-0.7,0-1.4-0.3-2-0.8c-1.1-0.8-1.2-1.8-1.2-2.7c0.1-1.5,0.1-3.1,0.1-4.6c0-1.5,0-3,0.1-4.5
			c0.1-1.9,1.1-2.9,2.8-2.9c1.9,0,3.1,1.1,3.2,3c0.1,1.5,0.1,3.1,0,4.6l0,5c0,1.3-0.7,2.3-2.1,2.7
			C108.8,153.3,108.5,153.4,108.2,153.4z"/>
		<path d="M117.4,153.3c-1.6,0-2.8-1.2-2.9-2.9c-0.1-3.1-0.1-6.4-0.1-9.5c0-0.8,0.5-1.7,1-2.2c0.5-0.6,1.2-1,2-1
			c0.4,0,0.8,0.1,1.2,0.3c1.1,0.4,1.8,1.4,1.8,2.7c0.1,1.6,0.1,3.2,0.1,4.8v4.6c0,1.8-1.1,3-2.9,3.1
			C117.6,153.3,117.5,153.3,117.4,153.3z"/>
		<path d="M136.3,153.4c-0.1,0-0.2,0-0.3,0c-1.5-0.2-2.7-1.2-2.7-2.5v-10.3c0-1.3,0.7-2.3,2-2.7c0.3-0.1,0.6-0.2,1-0.2
			c1,0,1.9,0.5,2.4,1.3c0.2,0.3,0.6,0.9,0.6,1.8c0.1,3,0.1,6,0.1,9.1c0,0.6-0.1,1.1-0.4,1.7C138.6,152.6,137.5,153.4,136.3,153.4z"
			/>
		<path d="M52.4,153.3c-1.8,0-3-1-3.1-2.8c-0.1-3.4-0.1-6.7,0-9.9c0-1.6,1.3-2.8,2.9-2.8c0.4,0,0.8,0.1,1.2,0.3
			c1.1,0.4,1.8,1.4,1.8,2.6v9.8C55.1,152.3,54.2,153.3,52.4,153.3z"/>
		<path d="M126.8,64.8c-1.4,0-2.6-0.9-3-2.3c-0.5-2.2-0.5-4.3,0-6.5c0.3-1.3,1.8-2.3,2.9-2.3c1.1,0,2.6,1,2.9,2.3
			c0.4,1.1,0.5,2.1,0.6,3.2l0,0.1l0,0.1c-0.1,1.2-0.2,2.1-0.4,3C129.6,63.7,128.3,64.8,126.8,64.8z"/>
		<path d="M80.5,78.8c-0.7,0-1.4-0.2-2-0.7c-1-0.7-1.5-1.6-1.3-2.8c0-0.5,0-1.1,0.1-1.8v-2.8c0.1-1.6,1.4-2.7,3-2.8
			c0.1,0,0.2,0,0.4,0c1.5,0,2.4,0.9,2.7,2.4c0.2,2.1,0.3,4,0.2,5.7C83.4,77.6,82.1,78.8,80.5,78.8z"/>
		<path d="M98.8,106.8c-1.7,0-2.7-0.9-2.8-2.5c-0.2-1.8-0.2-3.7-0.2-5.6c0-1.6,1.7-3,3.2-3c1.5,0,2.8,1.1,3,2.8l0,0.1v0.1
			c0,0.1,0,0.2,0,0.2c0,0.2,0.1,0.4,0.1,0.6c0,0.6,0,1.3-0.1,2c0,0.3,0,0.5,0,0.8c0,0.6,0,1.2,0,1.8
			C101.8,105.6,100.5,106.8,98.8,106.8z"/>
		<path d="M79.9,92.8c-1.4-0.1-2.6-1.4-2.8-2.9l0-5.1c0.1-1.7,1.3-2.9,2.8-3c0.1,0,0.2,0,0.2,0c1.3,0,2.9,1.1,3.1,2.6
			c0.2,2,0.1,3.9,0,5.8C83.1,91.6,81.3,92.8,79.9,92.8L79.9,92.8z"/>
		<path d="M80.6,120.7c-0.2,0-0.3,0-0.5,0c-1.6-0.1-2.7-1.2-2.9-2.6c-0.1-1.1-0.1-2.2-0.1-3.2v-2c0-1.5,1.4-2.9,2.9-3
			c0.1,0,0.2,0,0.3,0c1.3,0,2.9,1.1,3.1,2.6c0.1,1.9,0,3.9-0.2,6.1C83.1,119.3,82.7,120.7,80.6,120.7z"/>
		<path d="M98.9,120.7c-0.1,0-0.2,0-0.3,0c-1.6-0.1-2.7-1.3-2.8-2.7c-0.1-0.6,0-1.1,0-1.6h-0.1l0-0.9c0-0.5,0.1-1,0.1-1.5
			c0-0.5,0.1-1,0.1-1.5c0.3-1.6,1.5-2.7,3-2.7c1.2,0,2.8,1.2,2.9,2.6c0.1,2.1,0.1,4,0,6C101.7,119.7,100.5,120.7,98.9,120.7z"/>
		<path d="M98.9,92.8c-1.4,0-3.2-1.4-3.2-3c0-1.8,0-3.6,0.1-5.4c0.1-1.6,1.3-2.7,2.9-2.7c1.6,0,3,1.2,3.1,2.8
			c0.1,0.4,0.1,0.9,0.1,1.3c0,0.4,0,0.8,0,1.1l0,0.1l0,0.1c0,0.4-0.1,0.9-0.1,1.3c0,0.5-0.1,0.9-0.1,1.4
			C101.7,91.6,100.5,92.8,98.9,92.8z"/>
		<path d="M80.5,50.8c-0.1,0-0.2,0-0.4,0c-1.6-0.1-2.7-1.2-3-2.9l0-0.1v-0.1c0-0.1,0-0.2,0-0.2L77,47.3l0-0.3
			c0.1-0.6,0.1-1.4,0.1-2.1v-1.8c0-1.7,1.4-3.3,3.1-3.3c0,0,0.1,0,0.2,0c1.6,0,3,1.4,3,3c0.1,1.5,0,3.3-0.2,5.4
			C83,49.9,82.1,50.8,80.5,50.8z"/>
		<path d="M80.3,106.7c-0.1,0-0.2,0-0.4,0c-1.4-0.1-2.6-1.3-2.8-2.6c0-0.1,0-0.2,0-0.3c0-0.2-0.1-0.4-0.1-0.5v-0.1l0-0.1
			c0.1-0.4,0.1-0.9,0.1-1.4c0,0-0.1-0.6-0.1-0.6l-0.1-1h0.1c0-0.1,0-0.3,0-0.4c0-0.4,0-0.8,0-1.1c0.1-1.7,1.2-2.8,2.8-2.9
			c0.1,0,0.2,0,0.2,0c1.4,0,3.1,1.2,3.1,2.7c0.1,1.8,0,3.8-0.2,6.1C82.9,105.8,81.8,106.7,80.3,106.7z"/>
		<path d="M107.9,120.6c-1.6,0-2.5-0.9-2.6-2.5c-0.2-1.9-0.2-3.9,0-5.8c0.2-1.6,1.3-2.6,2.8-2.6c0.7,0,1.4,0.2,2.1,0.7
			c0.7,0.6,1.4,1.4,1.2,2.7c0,0.3,0,0.6,0,0.9c0,0.3,0,0.7,0,1v2.6c-0.1,1.7-1.3,2.7-3,2.8C108.1,120.6,108,120.6,107.9,120.6z"/>
		<path d="M70.9,120.8c-0.5,0-1.1-0.1-1.6-0.4c-0.9-0.5-1.5-1.3-1.5-2.3v-2l-0.1,0l0-0.8c0-0.5,0-1,0.1-1.4c0-0.4,0-0.8,0-1.2
			c0.1-1.7,1.2-2.8,2.7-2.9c0.1,0,0.2,0,0.3,0c1.6,0,2.9,1.2,3,2.7c0.1,1.6,0.2,3.5,0.1,5.4C73.9,119.5,72.5,120.8,70.9,120.8z"/>
		<path d="M70.8,106.8c-1.6,0-2.9-1.4-3-3.1l0-0.1l0-0.1c0.1-0.7,0.1-1.5,0.1-2.3v-2.6c0.1-1.6,1.4-2.9,2.9-2.9c1.6,0,3,1.2,3.1,2.7
			c0.1,1.6,0.2,3.5,0.1,5.3C74,105.4,72.2,106.8,70.8,106.8z"/>
		<path d="M70.8,78.9c-0.1,0-0.2,0-0.3,0c-1.5-0.1-2.7-1.3-2.7-2.8v-1.9l-0.1,0l0-0.8c0-0.5,0-0.9,0.1-1.4c0-0.4,0-0.9,0-1.3
			c0.1-1.6,1.1-2.5,2.6-2.6c0.2,0,0.4,0,0.6,0c1.3,0,2.3,0.7,2.7,1.9c0.5,2.3,0.5,4.6,0,6.8C73.4,78,72,78.9,70.8,78.9z"/>
		<path d="M71.1,134.7c-0.2,0-0.3,0-0.5-0.1c-1.2-0.1-2.5-1.4-2.6-2.7c-0.2-0.7-0.1-1.4-0.1-2.1c0-0.2,0-0.4,0-0.6v-2.6
			c0-1.3,1.4-2.8,2.8-2.9c0.1,0,0.2,0,0.3,0c1.2,0,2.5,1,3,2.2c0.6,2.3,0.6,4.5,0,6.7C73.7,133.7,72.4,134.7,71.1,134.7z"/>
		<path d="M43,106.8c-1.5,0-3-1.4-3.1-2.8c-0.1-0.7,0-1.4,0-2.1c0-0.3,0-0.6,0-0.9c0-0.7,0-1.4,0.1-2.1c0.1-1.7,1.4-3,3-3
			c0.5,0,1,0.1,1.5,0.4c0.6,0.3,1.3,1,1.4,1.9c0.1,0.7,0.2,1.5,0.2,2.2c0,0.4,0,0.7,0.1,1l0.2,2.4l-0.3-0.3v0.2
			c-0.1,1.7-1.3,3-2.9,3.1C43.1,106.8,43,106.8,43,106.8z"/>
		<path d="M136.1,134.8c-0.1,0-0.2,0-0.3,0c-1.4-0.1-2.6-1.4-2.8-3l0-0.1l0-0.1c0.1-0.9,0.1-1.6,0.1-2.4V127c0-1.4,0.7-2.4,2.2-3.2
			c0.3-0.1,0.5-0.2,0.9-0.2c1.2,0,2.5,1,2.8,2.1c0.2,0.6,0.3,1.4,0.3,2.1c0,1.4,0,2.8-0.2,4.2C138.9,133.7,137.6,134.8,136.1,134.8z
			"/>
		<path d="M71.2,50.8c-0.5,0-1.1-0.1-1.5-0.4c-1.2-0.5-1.5-1.5-1.5-2.3c-0.2-1-0.2-1.8-0.2-2.7c0-0.5,0-1,0.1-1.4c0-0.4,0-0.8,0-1.2
			c0.1-1.7,1.2-2.8,2.8-2.9c0,0,0,0,0,0c1.9,0,3.2,1.1,3.3,2.7c0.1,1.6,0.2,3.5,0.1,5.3C74.1,49.5,72.8,50.8,71.2,50.8z"/>
		<path d="M80.1,64.8c-1.5,0-2.7-1.1-2.8-2.6c-0.1-1.9-0.1-3.8-0.1-5.7c0-1.5,1.5-2.7,2.9-2.7c1.6,0,3,1.1,3.1,2.6
			c0.2,0.9,0.3,2,0.3,2.9v0.1l0,0.1c0,0.4-0.1,0.8-0.1,1.2c0,0.4-0.1,0.9-0.1,1.3C83.1,63.5,81.8,64.6,80.1,64.8L80.1,64.8
			L80.1,64.8z"/>
		<path d="M52.3,134.8c-1.3,0-2.8-1-3-2.4c-0.2-1.4-0.3-2.9-0.3-4.5c0-0.7,0.1-1.2,0.3-2c0.4-1.3,1.5-2.2,2.9-2.2c0.1,0,0.2,0,0.3,0
			c1.5,0.1,2.6,1.3,2.8,2.8c0,0.5,0,1,0,1.5c0,0.4,0,0.9,0,1.3v2.6c-0.2,1.5-1.4,2.6-2.6,2.8C52.5,134.8,52.4,134.8,52.3,134.8z"/>
		<path d="M145.3,106.8c-0.9,0-1.7-0.4-2.3-1.2c-0.4-0.4-0.6-1.1-0.7-1.7l0-0.1l0-0.1c0.1-0.5,0.1-1,0.1-1.4h-0.1l0-0.8l-0.1-0.9
			h0.2c0-0.2,0-0.5,0-0.7c0-0.5,0.1-1.1,0.1-1.6c0.2-1.4,1.4-2.4,2.7-2.4c0.4,0,0.9,0.1,1.3,0.3c1,0.5,2.1,1.4,2.1,3.1
			c0,1.5,0,3-0.1,4.7c-0.1,1.4-1,2.4-2.4,2.9C145.9,106.7,145.6,106.8,145.3,106.8z"/>
		<path d="M136.2,120.5c-0.3,0-0.6,0-0.9-0.1c-1.2-0.3-2-1.2-2.2-2.5l0-0.3c0-0.5,0-0.9,0-1.3H133l0-0.8l-0.1-0.9h0.2
			c0-0.3,0-0.5,0-0.8c0-0.5,0.1-1.1,0.1-1.6c0.1-1.3,1.2-2.3,2.6-2.5c0.1,0,0.2,0,0.3,0c1.1,0,2.3,0.7,2.7,1.6
			c0,0.1,0.1,0.2,0.2,0.4c0,0.1,0.1,0.2,0.1,0.3l0,0.1l0,0.1c0.4,2,0.4,4,0,6C138.8,119.6,137.7,120.5,136.2,120.5z"/>
		<path d="M108.3,92.8c-1.4,0-3.3-1.4-3.3-3c-0.1-1.6-0.1-3.3,0-5.1c0.1-1.6,1.6-3,3.1-3c0.1,0,0.2,0,0.2,0c1.6,0,2.9,1.4,2.9,3.2
			c0.1,0.6,0,1.1,0,1.6c0,0.2,0,0.5,0,0.7v2.4C111.1,91.5,109.8,92.8,108.3,92.8z"/>
		<path d="M108.2,106.8c-1.5,0-3-1.4-3.1-2.8c-0.1-1.9-0.1-3.7,0-5.4c0.1-1.3,1-2.2,2.5-2.7c0.3-0.1,0.5-0.1,0.6-0.1
			c0.9,0,1.8,0.5,2.5,1.3l0.1,0.1c0.2,0.4,0.3,0.8,0.4,1.1c0,0.1,0,0.2,0.1,0.3l0,0.1v4.7c0,1.7-1.2,3.1-2.9,3.2
			C108.3,106.8,108.2,106.8,108.2,106.8z"/>
		<path d="M117.5,120.7c-1.8,0-2.9-0.9-3-2.5c-0.2-1.8-0.1-3.8,0-5.7c0-1.3,0.8-2.2,2.4-2.7c0.3-0.1,0.5-0.1,0.6-0.1
			c1.1,0,1.9,0.7,2.4,1.2c0.4,0.4,0.5,1,0.5,1.5c0.1,0.9,0.1,1.8,0.1,2.7v2.6c-0.1,1.7-1.2,2.8-2.7,2.9
			C117.7,120.7,117.6,120.7,117.5,120.7z"/>
		<path d="M70.8,92.9c-1.5,0-2.8-1.2-2.9-2.9l0-5.3c0.1-1.6,1.5-2.9,3-2.9c1.3,0,3.2,1.2,3.2,2.9V90C74,91.7,72.3,92.9,70.8,92.9z"
			/>
		<path d="M70.8,64.8c-0.1,0-0.2,0-0.3,0c-1.4-0.1-2.6-1.4-2.8-3l0-0.1l0-0.1c0.1-0.7,0.1-1.5,0.1-2.3v-2.4c0.1-1.5,1.1-2.7,2.4-3.1
			c0.1,0,0.3-0.1,0.5-0.1c0.9,0,2.2,0.7,2.8,1.7c0.3,0.4,0.4,0.9,0.4,1.3c0,0.4,0,0.9,0,1.3c0,1.3,0,2.7-0.1,4.1
			C73.7,63.6,72.4,64.8,70.8,64.8z"/>
		<path d="M52.3,120.7c-1.5,0-2.8-1-3-2.3c-0.4-2.5-0.4-4.5,0-6.3c0.3-1.2,1.1-2,2.4-2.3c0.2,0,0.3,0,0.4,0c1.2,0,2,0.7,2.6,1.3
			c0.3,0.3,0.4,0.9,0.4,1.3c0.1,0.8,0.2,1.8,0.1,2.8l0,2.7c-0.1,1.7-1.1,2.7-2.7,2.8C52.5,120.7,52.4,120.7,52.3,120.7z"/>
		<path d="M145.5,120.7c-1.6,0-2.8-1.1-2.9-2.7c-0.1-0.5-0.1-1.1-0.1-1.6c0-0.5,0-1,0-1.5l0-2c0-1.8,1.4-3.1,3.2-3.1
			c0.3,0,0.6,0,0.9,0.1c1.7,0.6,1.9,1.8,1.9,2.4c0.1,1.9,0.2,3.7,0.2,5.5C148.7,119.5,147,120.7,145.5,120.7z"/>
		<path d="M52.2,106.6c-1.5,0-2.9-1.1-3.1-2.4c-0.1-2.1-0.1-4.1,0-6c0-1.4,1.6-2.4,3-2.4c0.1,0,0.2,0,0.3,0c0,0,0,0,0,0
			c1.2,0,2.5,1.1,2.7,2.4l0,0.1c0.1,0.2,0.1,0.3,0.1,0.5v5.2c-0.1,1.5-1.3,2.5-2.8,2.6C52.4,106.6,52.3,106.6,52.2,106.6z"/>
		<path d="M108.3,134.8c-1.3,0-2.9-1-3.1-2.5c-0.1-2-0.1-4,0-6c0.1-1.6,1.6-2.5,3-2.5c0.1,0,0.2,0,0.3,0c1.4,0.1,2.6,1.4,2.8,2.8
			l0,0.4v5c-0.1,1.5-1.3,2.7-2.7,2.8C108.5,134.8,108.4,134.8,108.3,134.8z"/>
		<path d="M61.6,78.8c-0.3,0-0.6-0.1-1-0.2c-1.3-0.5-2-1.3-2.1-2.5c0-0.6,0-1,0-1.5c0-0.4,0-0.9,0-1.3c0-0.3,0-0.6,0-0.9
			c0-0.6,0-1.3,0-1.9c0.1-1.5,1.2-2.5,2.7-2.7c0.1,0,0.2,0,0.3,0c1.3,0,2.8,0.9,3,2.4c0.5,2.2,0.5,4.3,0,6.1
			C64.2,77.8,63,78.8,61.6,78.8z"/>
		<path d="M117.5,64.9c-1.5,0-2.8-1.1-2.9-2.5c-0.1-1.9-0.2-3.9,0-5.9c0.1-1.5,1.4-2.6,2.9-2.6c0.1,0,0.2,0,0.3,0
			c1.5,0.1,2.6,1.4,2.8,3l0,4.9c0,1.5-1.3,2.9-2.8,3C117.7,64.9,117.6,64.9,117.5,64.9z"/>
		<path d="M117.6,134.8c-1.4,0-2.7-1-2.9-2.3c-0.4-2.1-0.4-4.2,0-6.3c0.3-1.3,1.5-2.3,2.9-2.3c0.1,0,0.2,0,0.3,0
			c1.4,0.1,2.6,1.4,2.8,2.9l0,0.4l0,0.1c-0.1,0.5-0.1,1.3-0.1,2.1v2.5c-0.1,1.5-1.3,2.8-2.7,2.9
			C117.8,134.8,117.7,134.8,117.6,134.8z"/>
		<path d="M136.2,106.7c-1.4,0-3-1-3-2.6c-0.1-1.9-0.1-3.9,0-5.8c0-1.3,1.3-2.5,2.9-2.5c0.1,0,0.2,0,0.3,0c1.6,0.1,2.8,1.3,3,2.7
			l0,0.1l0,0.1c-0.1,0.9-0.1,1.7-0.1,2.6v2.7C139.1,105.5,137.7,106.7,136.2,106.7z"/>
		<path d="M117.6,92.8c-1.5,0-3-1.3-3.1-2.8l0-5.4c0-1.7,1.9-2.9,3.2-2.9c1.4,0,3,1.2,3,2.9c0.1,1.8,0.1,3.5,0,5.3
			C120.6,91.6,119,92.8,117.6,92.8z"/>
		<path d="M117.6,106.7c-1.7,0-3-1.3-3-3v-5c0-1.6,1.5-3,3.2-3c1.5,0,2.8,1.2,2.9,2.9l0,0.1l0,0.1c-0.1,0.7-0.1,1.6-0.1,2.4v2.5
			C120.4,105.4,119.2,106.7,117.6,106.7z"/>
	</g>
</g>
</svg>
