<?xml version="1.0" encoding="utf-8"?>
<!-- Generator: Adobe Illustrator 23.0.3, SVG Export Plug-In . SVG Version: 6.00 Build 0)  -->
<svg version="1.1" id="Слой_1" xmlns="http://www.w3.org/2000/svg" xmlns:xlink="http://www.w3.org/1999/xlink" x="0px" y="0px"
	 viewBox="0 0 183.8 183.9" style="enable-background:new 0 0 183.8 183.9;" xml:space="preserve">
<style type="text/css">
	.st0{fill:url(#SVGID_1_);}
	.st1{fill:url(#SVGID_2_);}
	.st2{fill:url(#SVGID_3_);}
	.st3{fill:url(#SVGID_4_);}
	.st4{fill:url(#SVGID_5_);}
	.st5{fill:url(#SVGID_6_);}
	.st6{fill:url(#SVGID_7_);}
	.st7{fill:url(#SVGID_8_);}
	.st8{fill:url(#SVGID_9_);}
	.st9{fill:url(#SVGID_10_);}
	.st10{fill:url(#SVGID_11_);}
	.st11{fill:url(#SVGID_12_);}
	.st12{fill:url(#SVGID_13_);}
	.st13{fill:url(#SVGID_14_);}
	.st14{fill:url(#SVGID_15_);}
	.st15{fill:url(#SVGID_16_);}
	.st16{fill:url(#SVGID_17_);}
	.st17{fill:url(#SVGID_18_);}
	.st18{fill:url(#SVGID_19_);}
	.st19{fill:url(#SVGID_20_);}
	.st20{fill:url(#SVGID_21_);}
	.st21{fill:url(#SVGID_22_);}
	.st22{fill:url(#SVGID_23_);}
	.st23{fill:url(#SVGID_24_);}
	.st24{fill:url(#SVGID_25_);}
	.st25{fill:url(#SVGID_26_);}
	.st26{fill:url(#SVGID_27_);}
	.st27{fill:url(#SVGID_28_);}
	.st28{fill:url(#SVGID_29_);}
	.st29{fill:url(#SVGID_30_);}
	.st30{fill:url(#SVGID_31_);}
	.st31{fill:url(#SVGID_32_);}
	.st32{fill:url(#SVGID_33_);}
	.st33{fill:url(#SVGID_34_);}
	.st34{fill:url(#SVGID_35_);}
	.st35{fill:url(#SVGID_36_);}
	.st36{fill:url(#SVGID_37_);}
	.st37{fill:url(#SVGID_38_);}
	.st38{fill:url(#SVGID_39_);}
	.st39{fill:url(#SVGID_40_);}
	.st40{fill:url(#SVGID_41_);}
	.st41{fill:url(#SVGID_42_);}
	.st42{fill:url(#SVGID_43_);}
	.st43{fill:url(#SVGID_44_);}
	.st44{fill:url(#SVGID_45_);}
	.st45{fill:url(#SVGID_46_);}
	.st46{fill:url(#SVGID_47_);}
	.st47{fill:#6FA31C;}
</style>
<g>
	<g>
		<linearGradient id="SVGID_1_" gradientUnits="userSpaceOnUse" x1="91.9085" y1="37.0479" x2="91.9085" y2="171.4052">
			<stop  offset="0" style="stop-color:#22949B"/>
			<stop  offset="1" style="stop-color:#2760CE"/>
		</linearGradient>
		<path class="st0" d="M158.6,166.4c-14.9,0-29.7,0-44.6,0c-14.9,0-29.7,0-44.6,0c-14.8,0-29.7,0-44.5,0c-1.3,0-2.1-0.4-2.9-1.5
			c-0.2-0.3-0.4-0.5-0.5-0.8l-0.1-0.3v-1.2l0-0.1c0.6-1.6,1.9-2.4,3.9-2.4c0.6,0,1.2,0,1.8,0c0.6,0,1.2,0,1.8,0c0.6,0,1.2,0,1.8,0
			c0,0,0-0.1,0-0.2c-0.1-7.2-0.1-14.5-0.1-21.6c0-0.3,0-0.4,0-0.4c0,0,0,0,0,0c0,0-0.1,0-0.2-0.1c-4.4-1.5-7.2-4.4-8.5-9.1
			c-0.2-0.5-0.3-1.1-0.4-1.5l0-0.2c-0.2-0.6-0.2-1.4-0.2-2.1v-0.1l0-0.1c0.1-0.5,0.2-1.1,0.4-1.7c1.4-5.4,6.4-9.4,11.8-9.4
			c0.1,0,0.3,0,0.4,0c6.3,0.3,11.2,4.6,12.1,10.6c1,6-2.7,11.9-8.6,13.6c-0.5,0.2-0.5,0.2-0.5,0.7c0,7.4,0,14.3-0.1,21.5
			c0,0,0,0,0,0c0,0,49.7,0,49.7,0c0,0,0-7.8,0-7.8c0-0.2,0-0.3,0-0.3l0,0c0,0-0.1,0-0.3-0.1c-4.3-1.4-7.1-4.2-8.5-8.3
			c-1.1-3.2-0.8-6.6,0.8-9.6c1.6-3.1,4.5-5.3,7.8-6.2c1-0.3,2.1-0.4,3.2-0.4c5.8,0,10.9,4.1,12.2,9.8c1.3,6.1-2.3,12.5-8.2,14.5
			c-0.4,0.1-0.7,0.3-0.8,0.3c0,0,0,0.5,0,0.9v7h56.5v-12.5c0-0.3,0-0.3-0.2-0.4c-3.6-1.4-5.8-4.1-6.5-7.8c-0.9-4.6,1.8-9.3,6.2-11
			c1.2-0.5,2.5-0.7,3.8-0.7c3.3,0,6.3,1.6,8.2,4.2c1.7,2.5,2.3,5.6,1.6,8.5c-0.7,2.8-2.7,5.1-5.5,6.5c-1.1,0.6-1.3,1-1.2,2
			c0.1,3.9,0.1,7.6,0,11.4c0,0,0,0,0,0c0,0,0,0,0,0c0.3,0,0.7,0,1,0c0.3,0,0.7,0,1,0c0.3,0,0.6,0,0.9,0c0.2,0,0.3,0,0.4,0
			c1.7,0,2.9,0.8,3.5,2.3l0.1,0.2v1.3l-0.1,0.2C161.7,165.7,160.5,166.4,158.6,166.4L158.6,166.4z M89.4,134.2
			c-1.6,0-3.1,0.6-4.2,1.8c-1.1,1.1-1.7,2.6-1.6,4.1c0,3.5,2.6,6.2,6.1,6.3c2.9,0,6-2.5,6-6.2C95.6,136.8,92.9,134.2,89.4,134.2z
			 M152.6,134.2c-2.4,0-3.8,1.4-3.8,3.7c0,2.1,1.7,3.8,3.7,3.8c2.1,0,3.8-1.8,3.8-3.8c0-1.8-1.8-3.6-3.5-3.6L152.6,134.2z M33.7,120
			c-4.1,0.1-6.1,3.2-6.2,6.2c0,3.4,2.7,6,6.3,6l0.2,0c1.5,0,2.9-0.6,3.9-1.8c1.1-1.2,1.7-2.7,1.7-4.4c0.1-1.4-0.5-2.8-1.6-4
			C36.8,120.8,35.1,120,33.7,120z"/>
		<linearGradient id="SVGID_2_" gradientUnits="userSpaceOnUse" x1="108.2083" y1="68.1968" x2="108.2083" y2="132.5453">
			<stop  offset="0" style="stop-color:#22949B"/>
			<stop  offset="1" style="stop-color:#2760CE"/>
		</linearGradient>
		<path class="st1" d="M126.9,157.3c-1.7,0-2.9-1-2.9-2.5c0-0.8-0.1-1.6-0.1-2.3c-0.1-1.6-0.2-3.2-0.2-4.9L123.4,89c0,0,0-6.9,0-7
			c0,0,0,0-0.1,0c-5.2-1.3-10.3-2.5-15.4-3.8c-5.1-1.3-10.1-2.5-15.2-3.8v47.1c0,1.5-0.9,2.2-1.6,2.6c-0.5,0.3-1,0.4-1.6,0.4
			c-0.6,0-1.1-0.1-1.6-0.4c-0.9-0.6-1.6-1.3-1.6-2.7v-51c0-1.8,1.2-3.1,3-3.1c0.3,0,0.6,0,0.9,0.1l16.5,3.9c6.5,1.6,13.1,3.3,19.4,5
			c0.8,0.2,1.4,0.5,2.1,0.8c0.2,0.1,0.5,0.2,0.8,0.4l0.1,0c0.7,0.4,1,1.1,1,2c0,5.9,0,11.8,0,17.7c0,5.9,0,11.7,0,17.6V149
			c0,2-0.2,4.1-0.4,6.1C129.6,156.1,129,157.3,126.9,157.3z"/>
		<linearGradient id="SVGID_3_" gradientUnits="userSpaceOnUse" x1="131.4636" y1="47.0904" x2="131.4636" y2="120.834">
			<stop  offset="0" style="stop-color:#22949B"/>
			<stop  offset="1" style="stop-color:#2760CE"/>
		</linearGradient>
		<path class="st2" d="M154.7,124.6c-1,0-2.4-0.5-2.9-1.4c-0.2-0.4-0.2-0.8-0.2-1.2l0-0.2c-0.1-7.7-0.2-15.7-0.2-23.5
			c0-0.1,0-0.2,0-0.2c0,0,0,0,0,0c0,0-0.1,0-0.2-0.1c-1.5-0.6-3-1.1-4.5-1.7c-3.4-1.3-7-2.6-10.5-4l-0.6-0.2
			c-2.2-0.8-2.5-1.1-2.5-3.3c0-0.3,0-0.6,0-0.9c-0.1-4.3-0.1-8.5-0.1-13c0-3.8,0-7.6,0-11.4c0-3.8-0.1-7.6-0.1-11.4
			c0-0.3,0-0.6,0-0.9c-0.9,0.2-1.8,0.4-2.6,0.7c-3.1,0.8-6.3,1.6-9.4,2.4c-3.1,0.8-6.2,1.5-9.3,2.3c-0.1,0-0.1,0-0.2,0
			c0,0,0,0.1,0,0.1c0,1.5,0,3,0,4.5c0,1.5,0,3,0,4.5c0,1.4-0.6,2.4-1.8,2.9c-0.3,0.2-0.7,0.3-1.1,0.3c-1.4,0-3-1-3.1-2.6
			c-0.1-3.9-0.2-8.3-0.2-12.5c0-1.6,1.6-2.3,2.1-2.5c1.3-0.4,2.5-0.8,3.7-1.1c3.7-0.9,7.4-1.9,11-2.8c3.7-0.9,7.3-1.8,11-2.8
			c0.1,0,0.2-0.1,0.2-0.1v-2.2c0.1-1.8,1.3-3,2.9-3c0.5,0,1,0.1,1.5,0.3c1.6,0.7,1.6,2.2,1.6,2.7l0,0.2c0.1,3.3,0.2,6.4,0.2,9.6
			c0.1,11.4,0.1,23,0.1,34.3c0,0.5,0,0.5,0.4,0.6c5,1.9,10.2,3.8,15.2,5.8l0.7,0.3c1.6,0.6,2.4,1.9,2.3,3.7c0,4.1-0.1,8.3-0.1,12.4
			c0,4.2,0,8.4-0.1,12.5c0,1.5-0.7,2.4-2.1,2.8C155.3,124.6,155,124.6,154.7,124.6z"/>
		<linearGradient id="SVGID_4_" gradientUnits="userSpaceOnUse" x1="70.8084" y1="26.3245" x2="70.8084" y2="81.0324">
			<stop  offset="0" style="stop-color:#22949B"/>
			<stop  offset="1" style="stop-color:#2760CE"/>
		</linearGradient>
		<path class="st3" d="M52.5,87.4c-1.7,0-3-0.9-3.1-2.3c-0.2-0.9-0.2-1.6-0.2-2.4c0-5.3,0-10.8-0.1-16.2c0-1.9,0.8-3.2,2.5-4.1
			c1.1-0.5,2.2-1.1,3.3-1.7c1.1-0.6,2.2-1.2,3.3-1.7c0.2-0.1,0.2-0.2,0.2-0.3c0-3,0.1-6,0.1-8.9c0-2.9,0.1-5.9,0.1-8.8
			c0-2.1,0.8-3.4,2.7-4.4c2.4-1.1,4.7-2.3,7-3.5c1.3-0.7,2.6-1.4,3.9-2c0.3-0.2,0.3-0.2,0.3-0.4v-2.3c0.1-2,1.4-3.4,3.1-3.4
			c1.6,0,3.2,1.5,3.3,3.1l0,2.7c0,0.2,0,0.2,0.1,0.2l11.7,6c1.3,0.6,1.9,1.6,1.9,3.2c0,3.5,0,7,0,10.5c0,3.5,0,7,0,10.5
			c0,1.3-1.6,2.6-3,2.7c-0.1,0-0.2,0-0.3,0c-1.4,0-2.7-1.1-3-2.4c-0.1-0.9-0.2-1.8-0.2-2.8c0.2-2.5,0.2-5.1,0.2-7.5v-9.2
			c0-0.2,0-0.2,0-0.2l0,0l-0.1,0c-1.8-0.9-3.5-1.7-5.3-2.6c-1.7-0.9-3.5-1.7-5.2-2.6c-0.1,0-0.1,0-0.2,0s-0.1,0-0.2,0
			c-1.4,0.7-2.8,1.4-4.1,2c-2.1,1-4.2,2.1-6.4,3.1c0,0,0,0,0,0c0,0.1,0,0.2,0,0.3c0,2.8,0,5.6-0.1,8.5c0,2.8,0,5.6,0,8.4
			c0,3.4-0.2,3.8-3.3,5.4c-1.9,1-3.8,2-5.8,3c-0.2,0.1-0.2,0.1-0.2,0.1c0,0,0,0.1,0,0.4l-0.3,15.7c0,0.4,0,0.8-0.1,1.3
			C54.9,86.7,54.1,87.4,52.5,87.4z"/>
		<linearGradient id="SVGID_5_" gradientUnits="userSpaceOnUse" x1="47.5086" y1="90.6649" x2="47.5086" y2="159.1209">
			<stop  offset="0" style="stop-color:#22949B"/>
			<stop  offset="1" style="stop-color:#2760CE"/>
		</linearGradient>
		<path class="st4" d="M61.4,157.3c-0.5,0-1-0.1-1.5-0.4c-0.4-0.2-0.9-0.8-0.9-1.5c0-0.2-0.1-0.5-0.1-0.7c-0.1-0.6-0.2-1.2-0.2-1.9
			c-0.1-6-0.2-12.2-0.2-18.2V96.8H36.7c0,0.1,0,0.2,0,0.2v10.7c0,1.4-1.2,2.6-2.8,2.8c-0.2,0-0.4,0.1-0.6,0.1
			c-1.3,0-2.3-0.8-2.6-2.1c-0.2-0.7-0.3-1.6-0.3-2.5c0-4.4,0-8.5-0.1-12.8c0-1.4,1.9-2.9,3.1-2.9h28.3c1.5,0,3,1.5,3,3v57.9
			c0,0.5,0,1.1-0.1,1.6c0,0.5,0,1,0,1.5C64.5,156,63.1,157.3,61.4,157.3z"/>
		<linearGradient id="SVGID_6_" gradientUnits="userSpaceOnUse" x1="71.018" y1="37.0479" x2="71.018" y2="171.4052">
			<stop  offset="0" style="stop-color:#22949B"/>
			<stop  offset="1" style="stop-color:#2760CE"/>
		</linearGradient>
		<path class="st5" d="M70.9,157.3c-1.5,0-2.8-1.1-2.9-2.7c-0.1-1.2,0-2.4,0-3.5c0-0.6,0-1.1,0-1.7v-4.8c0-1.7,1.1-2.9,2.8-2.9
			c0,0,0.2,0,0.3,0c1.7,0,2.9,1,3,2.6c0.4,3,0.4,6.3,0,10.3C73.8,156.2,72.5,157.3,70.9,157.3z"/>
		<linearGradient id="SVGID_7_" gradientUnits="userSpaceOnUse" x1="42.7628" y1="37.0479" x2="42.7628" y2="171.4052">
			<stop  offset="0" style="stop-color:#22949B"/>
			<stop  offset="1" style="stop-color:#2760CE"/>
		</linearGradient>
		<path class="st6" d="M42.8,157.3c-1.6,0-2.8-1.1-2.9-2.7c-0.4-3-0.4-6.3,0-10.2c0.1-1.7,1.1-2.6,2.8-2.6c1.7,0,3,1.1,3.1,2.8
			c0.1,1.2,0.1,2.4,0.1,3.6c0.1,0.5,0.1,0.9,0,1.5v4.6c0,1.7-1.1,2.9-2.9,3C42.9,157.3,42.8,157.3,42.8,157.3z"/>
		<linearGradient id="SVGID_8_" gradientUnits="userSpaceOnUse" x1="108.0456" y1="37.0479" x2="108.0456" y2="171.4052">
			<stop  offset="0" style="stop-color:#22949B"/>
			<stop  offset="1" style="stop-color:#2760CE"/>
		</linearGradient>
		<path class="st7" d="M108.1,157.3c-0.7,0-1.4-0.3-2-0.8c-1.1-0.8-1.2-1.8-1.2-2.7c0.1-1.5,0.1-3.1,0.1-4.6c0-1.5,0-3,0.1-4.5
			c0.1-1.9,1.1-2.9,2.8-2.9c1.9,0,3.1,1.1,3.2,3c0.1,1.5,0.1,3.1,0,4.6l0,5c0,1.3-0.7,2.3-2.1,2.7
			C108.7,157.3,108.4,157.3,108.1,157.3z"/>
		<linearGradient id="SVGID_9_" gradientUnits="userSpaceOnUse" x1="117.4085" y1="37.0479" x2="117.4085" y2="171.4052">
			<stop  offset="0" style="stop-color:#22949B"/>
			<stop  offset="1" style="stop-color:#2760CE"/>
		</linearGradient>
		<path class="st8" d="M117.4,157.2c-1.6,0-2.8-1.2-2.9-2.9c-0.1-3.1-0.1-6.4-0.1-9.5c0-0.8,0.5-1.7,1-2.2c0.5-0.6,1.2-1,2-1
			c0.4,0,0.8,0.1,1.2,0.3c1.1,0.4,1.8,1.4,1.8,2.7c0.1,1.6,0.1,3.2,0.1,4.8v4.6c0,1.8-1.1,3-2.9,3.1
			C117.5,157.2,117.4,157.2,117.4,157.2z"/>
		<linearGradient id="SVGID_10_" gradientUnits="userSpaceOnUse" x1="136.2581" y1="37.0479" x2="136.2581" y2="171.4052">
			<stop  offset="0" style="stop-color:#22949B"/>
			<stop  offset="1" style="stop-color:#2760CE"/>
		</linearGradient>
		<path class="st9" d="M136.2,157.3c-0.1,0-0.2,0-0.3,0c-1.5-0.2-2.7-1.2-2.7-2.5v-10.3c0-1.3,0.7-2.3,2-2.7c0.3-0.1,0.6-0.2,1-0.2
			c1,0,1.9,0.5,2.4,1.3c0.2,0.3,0.6,0.9,0.6,1.8c0.1,3,0.1,6,0.1,9.1c0,0.6-0.1,1.1-0.4,1.7C138.6,156.6,137.5,157.3,136.2,157.3z"
			/>
		<linearGradient id="SVGID_11_" gradientUnits="userSpaceOnUse" x1="52.171" y1="37.0479" x2="52.171" y2="171.4052">
			<stop  offset="0" style="stop-color:#22949B"/>
			<stop  offset="1" style="stop-color:#2760CE"/>
		</linearGradient>
		<path class="st10" d="M52.4,157.2c-1.8,0-3-1-3.1-2.8c-0.1-3.4-0.1-6.7,0-9.9c0-1.6,1.3-2.8,2.9-2.8c0.4,0,0.8,0.1,1.2,0.3
			c1.1,0.4,1.8,1.4,1.8,2.6v9.8C55.1,156.3,54.1,157.2,52.4,157.2z"/>
		<linearGradient id="SVGID_12_" gradientUnits="userSpaceOnUse" x1="126.7739" y1="37.0479" x2="126.7739" y2="171.4052">
			<stop  offset="0" style="stop-color:#22949B"/>
			<stop  offset="1" style="stop-color:#2760CE"/>
		</linearGradient>
		<path class="st11" d="M126.8,68.7c-1.4,0-2.6-0.9-3-2.3c-0.5-2.2-0.5-4.3,0-6.5c0.3-1.3,1.8-2.3,2.9-2.3c1.1,0,2.6,1,2.9,2.3
			c0.4,1.1,0.5,2.1,0.6,3.2l0,0.1l0,0.1c-0.1,1.2-0.2,2.1-0.4,3C129.5,67.7,128.3,68.7,126.8,68.7z"/>
		<linearGradient id="SVGID_13_" gradientUnits="userSpaceOnUse" x1="80.27" y1="37.0479" x2="80.27" y2="171.4052">
			<stop  offset="0" style="stop-color:#22949B"/>
			<stop  offset="1" style="stop-color:#2760CE"/>
		</linearGradient>
		<path class="st12" d="M80.4,82.7c-0.7,0-1.4-0.2-2-0.7c-1-0.7-1.5-1.6-1.3-2.8c0-0.5,0-1.1,0.1-1.8v-2.8c0.1-1.6,1.4-2.7,3-2.8
			c0.1,0,0.2,0,0.4,0c1.5,0,2.4,0.9,2.7,2.4c0.2,2.1,0.3,4,0.2,5.7C83.3,81.5,82,82.7,80.4,82.7z"/>
		<linearGradient id="SVGID_14_" gradientUnits="userSpaceOnUse" x1="98.8582" y1="37.0479" x2="98.8582" y2="171.4052">
			<stop  offset="0" style="stop-color:#22949B"/>
			<stop  offset="1" style="stop-color:#2760CE"/>
		</linearGradient>
		<path class="st13" d="M98.8,110.7c-1.7,0-2.7-0.9-2.8-2.5c-0.2-1.8-0.2-3.7-0.2-5.6c0-1.6,1.7-3,3.2-3c1.5,0,2.8,1.1,3,2.8l0,0.1
			v0.1c0,0.1,0,0.2,0,0.2c0,0.2,0.1,0.4,0.1,0.6c0,0.6,0,1.3-0.1,2c0,0.3,0,0.5,0,0.8c0,0.6,0,1.2,0,1.8
			C101.8,109.6,100.4,110.7,98.8,110.7z"/>
		<linearGradient id="SVGID_15_" gradientUnits="userSpaceOnUse" x1="80.2158" y1="37.0479" x2="80.2158" y2="171.4052">
			<stop  offset="0" style="stop-color:#22949B"/>
			<stop  offset="1" style="stop-color:#2760CE"/>
		</linearGradient>
		<path class="st14" d="M79.9,96.7c-1.4-0.1-2.6-1.4-2.8-2.9l0-5.1c0.1-1.7,1.3-2.9,2.8-3c0.1,0,0.2,0,0.2,0c1.3,0,2.9,1.1,3.1,2.6
			c0.2,2,0.1,3.9,0,5.8C83.1,95.5,81.3,96.7,79.9,96.7L79.9,96.7z"/>
		<linearGradient id="SVGID_16_" gradientUnits="userSpaceOnUse" x1="80.2276" y1="37.0479" x2="80.2276" y2="171.4052">
			<stop  offset="0" style="stop-color:#22949B"/>
			<stop  offset="1" style="stop-color:#2760CE"/>
		</linearGradient>
		<path class="st15" d="M80.6,124.6c-0.2,0-0.3,0-0.5,0c-1.6-0.1-2.7-1.2-2.9-2.6c-0.1-1.1-0.1-2.2-0.1-3.2v-2c0-1.5,1.4-2.9,2.9-3
			c0.1,0,0.2,0,0.3,0c1.3,0,2.9,1.1,3.1,2.6c0.1,1.9,0,3.9-0.2,6.1C83,123.2,82.6,124.6,80.6,124.6z"/>
		<linearGradient id="SVGID_17_" gradientUnits="userSpaceOnUse" x1="98.7476" y1="37.0479" x2="98.7476" y2="171.4052">
			<stop  offset="0" style="stop-color:#22949B"/>
			<stop  offset="1" style="stop-color:#2760CE"/>
		</linearGradient>
		<path class="st16" d="M98.8,124.6c-0.1,0-0.2,0-0.3,0c-1.6-0.1-2.7-1.3-2.8-2.7c-0.1-0.6,0-1.1,0-1.6h-0.1l0-0.9
			c0-0.5,0.1-1,0.1-1.5c0-0.5,0.1-1,0.1-1.5c0.3-1.6,1.5-2.7,3-2.7c1.2,0,2.8,1.2,2.9,2.6c0.1,2.1,0.1,4,0,6
			C101.7,123.7,100.4,124.6,98.8,124.6z"/>
		<linearGradient id="SVGID_18_" gradientUnits="userSpaceOnUse" x1="98.8611" y1="37.0479" x2="98.8611" y2="171.4052">
			<stop  offset="0" style="stop-color:#22949B"/>
			<stop  offset="1" style="stop-color:#2760CE"/>
		</linearGradient>
		<path class="st17" d="M98.9,96.7c-1.4,0-3.2-1.4-3.2-3c0-1.8,0-3.6,0.1-5.4c0.1-1.6,1.3-2.7,2.9-2.7c1.6,0,3,1.2,3.1,2.8
			c0.1,0.4,0.1,0.9,0.1,1.3c0,0.4,0,0.8,0,1.1l0,0.1l0,0.1c0,0.4-0.1,0.9-0.1,1.3c0,0.5-0.1,0.9-0.1,1.4
			C101.7,95.5,100.5,96.7,98.9,96.7z"/>
		<linearGradient id="SVGID_19_" gradientUnits="userSpaceOnUse" x1="80.1635" y1="37.0479" x2="80.1635" y2="171.4052">
			<stop  offset="0" style="stop-color:#22949B"/>
			<stop  offset="1" style="stop-color:#2760CE"/>
		</linearGradient>
		<path class="st18" d="M80.5,54.7c-0.1,0-0.2,0-0.4,0c-1.6-0.1-2.7-1.2-3-2.9l0-0.1v-0.1c0-0.1,0-0.2,0-0.2L77,51.2l0-0.3
			c0.1-0.6,0.1-1.4,0.1-2.1v-1.8c0-1.7,1.4-3.3,3.1-3.3c0,0,0.1,0,0.2,0c1.6,0,3,1.4,3,3c0.1,1.5,0,3.3-0.2,5.4
			C83,53.8,82,54.7,80.5,54.7z"/>
		<linearGradient id="SVGID_20_" gradientUnits="userSpaceOnUse" x1="80.0714" y1="37.0479" x2="80.0714" y2="171.4052">
			<stop  offset="0" style="stop-color:#22949B"/>
			<stop  offset="1" style="stop-color:#2760CE"/>
		</linearGradient>
		<path class="st19" d="M80.2,110.6c-0.1,0-0.2,0-0.4,0c-1.4-0.1-2.6-1.3-2.8-2.6c0-0.1,0-0.2,0-0.3c0-0.2-0.1-0.4-0.1-0.5v-0.1
			l0-0.1c0.1-0.4,0.1-0.9,0.1-1.4c0,0-0.1-0.6-0.1-0.6l-0.1-1H77c0-0.1,0-0.3,0-0.4c0-0.4,0-0.8,0-1.1c0.1-1.7,1.2-2.8,2.8-2.9
			c0.1,0,0.2,0,0.2,0c1.4,0,3.1,1.2,3.1,2.7c0.1,1.8,0,3.8-0.2,6.1C82.9,109.7,81.7,110.6,80.2,110.6z"/>
		<linearGradient id="SVGID_21_" gradientUnits="userSpaceOnUse" x1="108.1909" y1="37.0479" x2="108.1909" y2="171.4052">
			<stop  offset="0" style="stop-color:#22949B"/>
			<stop  offset="1" style="stop-color:#2760CE"/>
		</linearGradient>
		<path class="st20" d="M107.9,124.5c-1.6,0-2.5-0.9-2.6-2.5c-0.2-1.9-0.2-3.9,0-5.8c0.2-1.6,1.3-2.6,2.8-2.6c0.7,0,1.4,0.2,2.1,0.7
			c0.7,0.6,1.4,1.4,1.2,2.7c0,0.3,0,0.6,0,0.9c0,0.3,0,0.7,0,1v2.6c-0.1,1.7-1.3,2.7-3,2.8C108.1,124.5,108,124.5,107.9,124.5z"/>
		<linearGradient id="SVGID_22_" gradientUnits="userSpaceOnUse" x1="70.8288" y1="37.0479" x2="70.8288" y2="171.4052">
			<stop  offset="0" style="stop-color:#22949B"/>
			<stop  offset="1" style="stop-color:#2760CE"/>
		</linearGradient>
		<path class="st21" d="M70.8,124.7c-0.5,0-1.1-0.1-1.6-0.4c-0.9-0.5-1.5-1.3-1.5-2.3v-2l-0.1,0l0-0.8c0-0.5,0-1,0.1-1.4
			c0-0.4,0-0.8,0-1.2c0.1-1.7,1.2-2.8,2.7-2.9c0.1,0,0.2,0,0.3,0c1.6,0,2.9,1.2,3,2.7c0.1,1.6,0.2,3.5,0.1,5.4
			C73.8,123.5,72.5,124.7,70.8,124.7z"/>
		<linearGradient id="SVGID_23_" gradientUnits="userSpaceOnUse" x1="70.827" y1="37.0479" x2="70.827" y2="171.4052">
			<stop  offset="0" style="stop-color:#22949B"/>
			<stop  offset="1" style="stop-color:#2760CE"/>
		</linearGradient>
		<path class="st22" d="M70.8,110.7c-1.6,0-2.9-1.4-3-3.1l0-0.1l0-0.1c0.1-0.7,0.1-1.5,0.1-2.3v-2.6c0.1-1.6,1.4-2.9,2.9-2.9
			c1.6,0,3,1.2,3.1,2.7c0.1,1.6,0.2,3.5,0.1,5.3C73.9,109.3,72.2,110.7,70.8,110.7z"/>
		<linearGradient id="SVGID_24_" gradientUnits="userSpaceOnUse" x1="70.8943" y1="37.0479" x2="70.8943" y2="171.4052">
			<stop  offset="0" style="stop-color:#22949B"/>
			<stop  offset="1" style="stop-color:#2760CE"/>
		</linearGradient>
		<path class="st23" d="M70.7,82.8c-0.1,0-0.2,0-0.3,0c-1.5-0.1-2.7-1.3-2.7-2.8v-1.9l-0.1,0l0-0.8c0-0.5,0-0.9,0.1-1.4
			c0-0.4,0-0.9,0-1.3c0.1-1.6,1.1-2.5,2.6-2.6c0.2,0,0.4,0,0.6,0c1.3,0,2.3,0.7,2.7,1.9c0.5,2.3,0.5,4.6,0,6.8
			C73.4,81.9,71.9,82.8,70.7,82.8z"/>
		<linearGradient id="SVGID_25_" gradientUnits="userSpaceOnUse" x1="71.0828" y1="37.0479" x2="71.0828" y2="171.4052">
			<stop  offset="0" style="stop-color:#22949B"/>
			<stop  offset="1" style="stop-color:#2760CE"/>
		</linearGradient>
		<path class="st24" d="M71.1,138.6c-0.2,0-0.3,0-0.5-0.1c-1.2-0.1-2.5-1.4-2.6-2.7c-0.2-0.7-0.1-1.4-0.1-2.1c0-0.2,0-0.4,0-0.6
			v-2.6c0-1.3,1.4-2.8,2.8-2.9c0.1,0,0.2,0,0.3,0c1.2,0,2.5,1,3,2.2c0.6,2.3,0.6,4.5,0,6.7C73.6,137.6,72.4,138.6,71.1,138.6z"/>
		<linearGradient id="SVGID_26_" gradientUnits="userSpaceOnUse" x1="43.0517" y1="37.0479" x2="43.0517" y2="171.4052">
			<stop  offset="0" style="stop-color:#22949B"/>
			<stop  offset="1" style="stop-color:#2760CE"/>
		</linearGradient>
		<path class="st25" d="M42.9,110.7c-1.5,0-3-1.4-3.1-2.8c-0.1-0.7,0-1.4,0-2.1c0-0.3,0-0.6,0-0.9c0-0.7,0-1.4,0.1-2.1
			c0.1-1.7,1.4-3,3-3c0.5,0,1,0.1,1.5,0.4c0.6,0.3,1.3,1,1.4,1.9c0.1,0.7,0.2,1.5,0.2,2.2c0,0.4,0,0.7,0.1,1l0.2,2.4l-0.3-0.3v0.2
			c-0.1,1.7-1.3,3-2.9,3.1C43.1,110.7,43,110.7,42.9,110.7z"/>
		<linearGradient id="SVGID_27_" gradientUnits="userSpaceOnUse" x1="136.1566" y1="37.0479" x2="136.1566" y2="171.4052">
			<stop  offset="0" style="stop-color:#22949B"/>
			<stop  offset="1" style="stop-color:#2760CE"/>
		</linearGradient>
		<path class="st26" d="M136.1,138.7c-0.1,0-0.2,0-0.3,0c-1.4-0.1-2.6-1.4-2.8-3l0-0.1l0-0.1c0.1-0.9,0.1-1.6,0.1-2.4V131
			c0-1.4,0.7-2.4,2.2-3.2c0.3-0.1,0.5-0.2,0.9-0.2c1.2,0,2.5,1,2.8,2.1c0.2,0.6,0.3,1.4,0.3,2.1c0,1.4,0,2.8-0.2,4.2
			C138.8,137.6,137.6,138.7,136.1,138.7z"/>
		<linearGradient id="SVGID_28_" gradientUnits="userSpaceOnUse" x1="70.9787" y1="37.0479" x2="70.9787" y2="171.4052">
			<stop  offset="0" style="stop-color:#22949B"/>
			<stop  offset="1" style="stop-color:#2760CE"/>
		</linearGradient>
		<path class="st27" d="M71.1,54.7c-0.5,0-1.1-0.1-1.5-0.4c-1.2-0.5-1.5-1.5-1.5-2.3c-0.2-1-0.2-1.8-0.2-2.7c0-0.5,0-1,0.1-1.4
			c0-0.4,0-0.8,0-1.2c0.1-1.7,1.2-2.8,2.8-2.9c0,0,0,0,0,0c1.9,0,3.2,1.1,3.3,2.7c0.1,1.6,0.2,3.5,0.1,5.3
			C74,53.5,72.7,54.7,71.1,54.7z"/>
		<linearGradient id="SVGID_29_" gradientUnits="userSpaceOnUse" x1="80.2584" y1="37.0479" x2="80.2584" y2="171.4052">
			<stop  offset="0" style="stop-color:#22949B"/>
			<stop  offset="1" style="stop-color:#2760CE"/>
		</linearGradient>
		<path class="st28" d="M80.1,68.7c-1.5,0-2.7-1.1-2.8-2.6c-0.1-1.9-0.1-3.8-0.1-5.7c0-1.5,1.5-2.7,2.9-2.7c1.6,0,3,1.1,3.1,2.6
			c0.2,0.9,0.3,2,0.3,2.9v0.1l0,0.1c0,0.4-0.1,0.8-0.1,1.2c0,0.4-0.1,0.9-0.1,1.3C83.1,67.4,81.8,68.6,80.1,68.7L80.1,68.7
			L80.1,68.7z"/>
		<linearGradient id="SVGID_30_" gradientUnits="userSpaceOnUse" x1="52.1565" y1="37.0479" x2="52.1565" y2="171.4052">
			<stop  offset="0" style="stop-color:#22949B"/>
			<stop  offset="1" style="stop-color:#2760CE"/>
		</linearGradient>
		<path class="st29" d="M52.3,138.7c-1.3,0-2.8-1-3-2.4c-0.2-1.4-0.3-2.9-0.3-4.5c0-0.7,0.1-1.2,0.3-2c0.4-1.3,1.5-2.2,2.9-2.2
			c0.1,0,0.2,0,0.3,0c1.5,0.1,2.6,1.3,2.8,2.8c0,0.5,0,1,0,1.5c0,0.4,0,0.9,0,1.3v2.6c-0.2,1.5-1.4,2.6-2.6,2.8
			C52.5,138.7,52.4,138.7,52.3,138.7z"/>
		<linearGradient id="SVGID_31_" gradientUnits="userSpaceOnUse" x1="145.4022" y1="37.0479" x2="145.4022" y2="171.4052">
			<stop  offset="0" style="stop-color:#22949B"/>
			<stop  offset="1" style="stop-color:#2760CE"/>
		</linearGradient>
		<path class="st30" d="M145.3,110.7c-0.9,0-1.7-0.4-2.3-1.2c-0.4-0.4-0.6-1.1-0.7-1.7l0-0.1l0-0.1c0.1-0.5,0.1-1,0.1-1.4h-0.1
			l0-0.8l-0.1-0.9h0.2c0-0.2,0-0.5,0-0.7c0-0.5,0.1-1.1,0.1-1.6c0.2-1.4,1.4-2.4,2.7-2.4c0.4,0,0.9,0.1,1.3,0.3
			c1,0.5,2.1,1.4,2.1,3.1c0,1.5,0,3-0.1,4.7c-0.1,1.4-1,2.4-2.4,2.9C145.8,110.7,145.5,110.7,145.3,110.7z"/>
		<linearGradient id="SVGID_32_" gradientUnits="userSpaceOnUse" x1="136.1531" y1="37.0479" x2="136.1531" y2="171.4052">
			<stop  offset="0" style="stop-color:#22949B"/>
			<stop  offset="1" style="stop-color:#2760CE"/>
		</linearGradient>
		<path class="st31" d="M136.1,124.5c-0.3,0-0.6,0-0.9-0.1c-1.2-0.3-2-1.2-2.2-2.5l0-0.3c0-0.5,0-0.9,0-1.3H133l0-0.8l-0.1-0.9h0.2
			c0-0.3,0-0.5,0-0.8c0-0.5,0.1-1.1,0.1-1.6c0.1-1.3,1.2-2.3,2.6-2.5c0.1,0,0.2,0,0.3,0c1.1,0,2.3,0.7,2.7,1.6
			c0,0.1,0.1,0.2,0.2,0.4c0,0.1,0.1,0.2,0.1,0.3l0,0.1l0,0.1c0.4,2,0.4,4,0,6C138.8,123.5,137.6,124.5,136.1,124.5z"/>
		<linearGradient id="SVGID_33_" gradientUnits="userSpaceOnUse" x1="108.0927" y1="37.0479" x2="108.0927" y2="171.4052">
			<stop  offset="0" style="stop-color:#22949B"/>
			<stop  offset="1" style="stop-color:#2760CE"/>
		</linearGradient>
		<path class="st32" d="M108.3,96.7c-1.4,0-3.3-1.4-3.3-3c-0.1-1.6-0.1-3.3,0-5.1c0.1-1.6,1.6-3,3.1-3c0.1,0,0.2,0,0.2,0
			c1.6,0,2.9,1.4,2.9,3.2c0.1,0.6,0,1.1,0,1.6c0,0.2,0,0.5,0,0.7v2.4C111.1,95.4,109.8,96.7,108.3,96.7z"/>
		<linearGradient id="SVGID_34_" gradientUnits="userSpaceOnUse" x1="108.071" y1="37.0479" x2="108.071" y2="171.4052">
			<stop  offset="0" style="stop-color:#22949B"/>
			<stop  offset="1" style="stop-color:#2760CE"/>
		</linearGradient>
		<path class="st33" d="M108.1,110.7c-1.5,0-3-1.4-3.1-2.8c-0.1-1.9-0.1-3.7,0-5.4c0.1-1.3,1-2.2,2.5-2.7c0.3-0.1,0.5-0.1,0.6-0.1
			c0.9,0,1.8,0.5,2.5,1.3l0.1,0.1c0.2,0.4,0.3,0.8,0.4,1.1c0,0.1,0,0.2,0.1,0.3l0,0.1v4.7c0,1.7-1.2,3.1-2.9,3.2
			C108.3,110.7,108.2,110.7,108.1,110.7z"/>
		<linearGradient id="SVGID_35_" gradientUnits="userSpaceOnUse" x1="117.4006" y1="37.0479" x2="117.4006" y2="171.4052">
			<stop  offset="0" style="stop-color:#22949B"/>
			<stop  offset="1" style="stop-color:#2760CE"/>
		</linearGradient>
		<path class="st34" d="M117.4,124.6c-1.8,0-2.9-0.9-3-2.5c-0.2-1.8-0.1-3.8,0-5.7c0-1.3,0.8-2.2,2.4-2.7c0.3-0.1,0.5-0.1,0.6-0.1
			c1.1,0,1.9,0.7,2.4,1.2c0.4,0.4,0.5,1,0.5,1.5c0.1,0.9,0.1,1.8,0.1,2.7v2.6c-0.1,1.7-1.2,2.8-2.7,2.9
			C117.7,124.6,117.5,124.6,117.4,124.6z"/>
		<linearGradient id="SVGID_36_" gradientUnits="userSpaceOnUse" x1="70.8585" y1="37.0479" x2="70.8585" y2="171.4052">
			<stop  offset="0" style="stop-color:#22949B"/>
			<stop  offset="1" style="stop-color:#2760CE"/>
		</linearGradient>
		<path class="st35" d="M70.8,96.8c-1.5,0-2.8-1.2-2.9-2.9l0-5.3c0.1-1.6,1.5-2.9,3-2.9c1.3,0,3.2,1.2,3.2,2.9V94
			C73.9,95.6,72.2,96.8,70.8,96.8z"/>
		<linearGradient id="SVGID_37_" gradientUnits="userSpaceOnUse" x1="70.8186" y1="37.0479" x2="70.8186" y2="171.4052">
			<stop  offset="0" style="stop-color:#22949B"/>
			<stop  offset="1" style="stop-color:#2760CE"/>
		</linearGradient>
		<path class="st36" d="M70.8,68.7c-0.1,0-0.2,0-0.3,0c-1.4-0.1-2.6-1.4-2.8-3l0-0.1l0-0.1c0.1-0.7,0.1-1.5,0.1-2.3v-2.4
			c0.1-1.5,1.1-2.7,2.4-3.1c0.1,0,0.3-0.1,0.5-0.1c0.9,0,2.2,0.7,2.8,1.7c0.3,0.4,0.4,0.9,0.4,1.3c0,0.4,0,0.9,0,1.3
			c0,1.3,0,2.7-0.1,4.1C73.7,67.6,72.4,68.7,70.8,68.7z"/>
		<linearGradient id="SVGID_38_" gradientUnits="userSpaceOnUse" x1="52.0979" y1="37.0479" x2="52.0979" y2="171.4052">
			<stop  offset="0" style="stop-color:#22949B"/>
			<stop  offset="1" style="stop-color:#2760CE"/>
		</linearGradient>
		<path class="st37" d="M52.2,124.6c-1.5,0-2.8-1-3-2.3c-0.4-2.5-0.4-4.5,0-6.3c0.3-1.2,1.1-2,2.4-2.3c0.2,0,0.3,0,0.4,0
			c1.2,0,2,0.7,2.6,1.3c0.3,0.3,0.4,0.9,0.4,1.3c0.1,0.8,0.2,1.8,0.1,2.8l0,2.7c-0.1,1.7-1.1,2.7-2.7,2.8
			C52.4,124.6,52.3,124.6,52.2,124.6z"/>
		<linearGradient id="SVGID_39_" gradientUnits="userSpaceOnUse" x1="145.5081" y1="37.0479" x2="145.5081" y2="171.4052">
			<stop  offset="0" style="stop-color:#22949B"/>
			<stop  offset="1" style="stop-color:#2760CE"/>
		</linearGradient>
		<path class="st38" d="M145.5,124.6c-1.6,0-2.8-1.1-2.9-2.7c-0.1-0.5-0.1-1.1-0.1-1.6c0-0.5,0-1,0-1.5l0-2c0-1.8,1.4-3.1,3.2-3.1
			c0.3,0,0.6,0,0.9,0.1c1.7,0.6,1.9,1.8,1.9,2.4c0.1,1.9,0.2,3.7,0.2,5.5C148.6,123.4,146.9,124.6,145.5,124.6z"/>
		<linearGradient id="SVGID_40_" gradientUnits="userSpaceOnUse" x1="52.121" y1="37.0479" x2="52.121" y2="171.4052">
			<stop  offset="0" style="stop-color:#22949B"/>
			<stop  offset="1" style="stop-color:#2760CE"/>
		</linearGradient>
		<path class="st39" d="M52.2,110.5c-1.5,0-2.9-1.1-3.1-2.4c-0.1-2.1-0.1-4.1,0-6c0-1.4,1.6-2.4,3-2.4c0.1,0,0.2,0,0.3,0
			c0,0,0,0,0,0c1.2,0,2.5,1.1,2.7,2.4l0,0.1c0.1,0.2,0.1,0.3,0.1,0.5v5.2c-0.1,1.5-1.3,2.5-2.8,2.6
			C52.3,110.5,52.3,110.5,52.2,110.5z"/>
		<linearGradient id="SVGID_41_" gradientUnits="userSpaceOnUse" x1="108.171" y1="37.0479" x2="108.171" y2="171.4052">
			<stop  offset="0" style="stop-color:#22949B"/>
			<stop  offset="1" style="stop-color:#2760CE"/>
		</linearGradient>
		<path class="st40" d="M108.3,138.7c-1.3,0-2.9-1-3.1-2.5c-0.1-2-0.1-4,0-6c0.1-1.6,1.6-2.5,3-2.5c0.1,0,0.2,0,0.3,0
			c1.4,0.1,2.6,1.4,2.8,2.8l0,0.4v5c-0.1,1.5-1.3,2.7-2.7,2.8C108.5,138.7,108.4,138.7,108.3,138.7z"/>
		<linearGradient id="SVGID_42_" gradientUnits="userSpaceOnUse" x1="61.6799" y1="37.0479" x2="61.6799" y2="171.4052">
			<stop  offset="0" style="stop-color:#22949B"/>
			<stop  offset="1" style="stop-color:#2760CE"/>
		</linearGradient>
		<path class="st41" d="M61.5,82.7c-0.3,0-0.6-0.1-1-0.2c-1.3-0.5-2-1.3-2.1-2.5c0-0.6,0-1,0-1.5c0-0.4,0-0.9,0-1.3
			c0-0.3,0-0.6,0-0.9c0-0.6,0-1.3,0-1.9c0.1-1.5,1.2-2.5,2.7-2.7c0.1,0,0.2,0,0.3,0c1.3,0,2.8,0.9,3,2.4c0.5,2.2,0.5,4.3,0,6.1
			C64.2,81.7,63,82.7,61.5,82.7z"/>
		<linearGradient id="SVGID_43_" gradientUnits="userSpaceOnUse" x1="117.451" y1="37.0479" x2="117.451" y2="171.4052">
			<stop  offset="0" style="stop-color:#22949B"/>
			<stop  offset="1" style="stop-color:#2760CE"/>
		</linearGradient>
		<path class="st42" d="M117.4,68.8c-1.5,0-2.8-1.1-2.9-2.5c-0.1-1.9-0.2-3.9,0-5.9c0.1-1.5,1.4-2.6,2.9-2.6c0.1,0,0.2,0,0.3,0
			c1.5,0.1,2.6,1.4,2.8,3l0,4.9c0,1.5-1.3,2.9-2.8,3C117.6,68.8,117.5,68.8,117.4,68.8z"/>
		<linearGradient id="SVGID_44_" gradientUnits="userSpaceOnUse" x1="117.4587" y1="37.0479" x2="117.4587" y2="171.4052">
			<stop  offset="0" style="stop-color:#22949B"/>
			<stop  offset="1" style="stop-color:#2760CE"/>
		</linearGradient>
		<path class="st43" d="M117.6,138.7c-1.4,0-2.7-1-2.9-2.3c-0.4-2.1-0.4-4.2,0-6.3c0.3-1.3,1.5-2.3,2.9-2.3c0.1,0,0.2,0,0.3,0
			c1.4,0.1,2.6,1.4,2.8,2.9l0,0.4l0,0.1c-0.1,0.5-0.1,1.3-0.1,2.1v2.5c-0.1,1.5-1.3,2.8-2.7,2.9
			C117.8,138.7,117.7,138.7,117.6,138.7z"/>
		<linearGradient id="SVGID_45_" gradientUnits="userSpaceOnUse" x1="136.2233" y1="37.0479" x2="136.2233" y2="171.4052">
			<stop  offset="0" style="stop-color:#22949B"/>
			<stop  offset="1" style="stop-color:#2760CE"/>
		</linearGradient>
		<path class="st44" d="M136.2,110.6c-1.4,0-3-1-3-2.6c-0.1-1.9-0.1-3.9,0-5.8c0-1.3,1.3-2.5,2.9-2.5c0.1,0,0.2,0,0.3,0
			c1.6,0.1,2.8,1.3,3,2.7l0,0.1l0,0.1c-0.1,0.9-0.1,1.7-0.1,2.6v2.7C139.1,109.4,137.7,110.6,136.2,110.6z"/>
		<linearGradient id="SVGID_46_" gradientUnits="userSpaceOnUse" x1="117.4959" y1="37.0479" x2="117.4959" y2="171.4052">
			<stop  offset="0" style="stop-color:#22949B"/>
			<stop  offset="1" style="stop-color:#2760CE"/>
		</linearGradient>
		<path class="st45" d="M117.6,96.7c-1.5,0-3-1.3-3.1-2.8l0-5.4c0-1.7,1.9-2.9,3.2-2.9c1.4,0,3,1.2,3,2.9c0.1,1.8,0.1,3.5,0,5.3
			C120.5,95.5,119,96.7,117.6,96.7z"/>
		<linearGradient id="SVGID_47_" gradientUnits="userSpaceOnUse" x1="117.5604" y1="37.0479" x2="117.5604" y2="171.4052">
			<stop  offset="0" style="stop-color:#22949B"/>
			<stop  offset="1" style="stop-color:#2760CE"/>
		</linearGradient>
		<path class="st46" d="M117.6,110.6c-1.7,0-3-1.3-3-3v-5c0-1.6,1.5-3,3.2-3c1.5,0,2.8,1.2,2.9,2.9l0,0.1l0,0.1
			c-0.1,0.7-0.1,1.6-0.1,2.4v2.5C120.4,109.4,119.1,110.6,117.6,110.6z"/>
	</g>
</g>
</svg>
