<svg width="112" height="93" viewBox="0 0 112 93" fill="none" xmlns="http://www.w3.org/2000/svg">
<path d="M0.0434471 8.91411C0.825447 7.41335 1.39022 5.69819 2.38944 4.36893C7.77656 -2.49172 18.1163 -1.03384 21.3747 7.07031C21.9829 8.57108 22.7215 8.91411 24.1986 8.91411C46.5725 8.87123 68.9463 8.87124 91.2768 8.87124C92.1457 8.87124 93.0146 8.87124 94.0138 8.87124C94.0138 30.9968 94.0138 52.9509 94.0138 75.291C93.1014 75.291 92.1891 75.291 91.2768 75.291C65.5142 75.291 39.7517 75.1623 13.9891 75.3338C7.03801 75.3767 2.25911 73.0184 0 66.3721C0.0434444 47.248 0.0434471 28.0811 0.0434471 8.91411ZM22.3739 13.4164C22.3739 30.4823 22.3739 47.2909 22.3739 64.0566C20.7664 64.0566 19.4197 64.0566 18.0729 64.0566C17.986 63.585 17.8991 63.199 17.8122 62.856C16.8999 59.2113 13.8153 57.1102 10.2529 57.6248C6.82078 58.1393 4.301 61.1837 4.51822 64.6141C4.73544 68.1301 7.55934 70.6171 11.339 70.7458C11.9907 70.7458 12.6423 70.7458 13.294 70.7458C38.0573 70.7458 62.7772 70.7458 87.5406 70.7458C88.1922 70.7458 88.8004 70.66 89.4956 70.6171C89.4956 51.4502 89.4956 32.4547 89.4956 13.3307C67.1217 13.4164 44.965 13.4164 22.3739 13.4164ZM17.8122 54.9663C17.8557 54.3231 17.9426 53.6799 17.9426 53.0796C17.9426 48.1485 17.9426 43.2174 17.9426 38.2863C17.9426 29.2817 17.986 20.2771 17.8991 11.3153C17.8557 6.98456 14.6842 4.15454 10.5136 4.54045C7.12489 4.8406 4.56167 7.58486 4.56167 11.2725C4.51822 25.5512 4.51822 39.8299 4.51822 54.1087C4.51822 54.366 4.60512 54.6232 4.64856 54.9234C12.121 51.8361 13.1202 53.1653 17.8122 54.9663Z" fill="#2760CE"/>
<path d="M0.0434471 8.91411C0.825447 7.41335 1.39022 5.69819 2.38944 4.36893C7.77656 -2.49172 18.1163 -1.03384 21.3747 7.07031C21.9829 8.57108 22.7215 8.91411 24.1986 8.91411C46.5725 8.87123 68.9463 8.87124 91.2768 8.87124C92.1457 8.87124 93.0146 8.87124 94.0138 8.87124C94.0138 30.9968 94.0138 52.9509 94.0138 75.291C93.1014 75.291 92.1891 75.291 91.2768 75.291C65.5142 75.291 39.7517 75.1623 13.9891 75.3338C7.03801 75.3767 2.25911 73.0184 0 66.3721C0.0434444 47.248 0.0434471 28.0811 0.0434471 8.91411ZM22.3739 13.4164C22.3739 30.4823 22.3739 47.2909 22.3739 64.0566C20.7664 64.0566 19.4197 64.0566 18.0729 64.0566C17.986 63.585 17.8991 63.199 17.8122 62.856C16.8999 59.2113 13.8153 57.1102 10.2529 57.6248C6.82078 58.1393 4.301 61.1837 4.51822 64.6141C4.73544 68.1301 7.55934 70.6171 11.339 70.7458C11.9907 70.7458 12.6423 70.7458 13.294 70.7458C38.0573 70.7458 62.7772 70.7458 87.5406 70.7458C88.1922 70.7458 88.8004 70.66 89.4956 70.6171C89.4956 51.4502 89.4956 32.4547 89.4956 13.3307C67.1217 13.4164 44.965 13.4164 22.3739 13.4164ZM17.8122 54.9663C17.8557 54.3231 17.9426 53.6799 17.9426 53.0796C17.9426 48.1485 17.9426 43.2174 17.9426 38.2863C17.9426 29.2817 17.986 20.2771 17.8991 11.3153C17.8557 6.98456 14.6842 4.15454 10.5136 4.54045C7.12489 4.8406 4.56167 7.58486 4.56167 11.2725C4.51822 25.5512 4.51822 39.8299 4.51822 54.1087C4.51822 54.366 4.60512 54.6232 4.64856 54.9234C12.121 51.8361 13.1202 53.1653 17.8122 54.9663Z" fill="url(#paint0_linear)"/>
<path d="M112 26.6231C112 48.8774 112 70.7886 112 92.8713C111.218 92.9142 110.523 92.9999 109.828 92.9999C83.1964 92.9999 56.5649 92.9999 29.9335 92.9999C27.153 92.9999 24.6333 92.3996 22.4176 90.7274C21.2012 89.784 20.506 88.6263 21.5487 87.2542C22.5045 85.9678 23.6775 86.3537 25.0243 86.9969C26.5448 87.7258 28.2392 88.4976 29.8466 88.4976C55.0878 88.5834 80.3725 88.5834 105.614 88.6263C107.265 88.6263 107.699 88.1117 107.656 86.5681C107.612 68.7304 107.612 50.8498 107.656 33.0121C107.656 31.9401 107.482 31.2112 106.396 30.6109C105.831 30.3107 105.31 29.0672 105.483 28.5098C105.701 27.7808 106.613 26.9233 107.351 26.7946C108.785 26.4087 110.349 26.6231 112 26.6231Z" fill="#2760CE"/>
<path d="M112 26.6231C112 48.8774 112 70.7886 112 92.8713C111.218 92.9142 110.523 92.9999 109.828 92.9999C83.1964 92.9999 56.5649 92.9999 29.9335 92.9999C27.153 92.9999 24.6333 92.3996 22.4176 90.7274C21.2012 89.784 20.506 88.6263 21.5487 87.2542C22.5045 85.9678 23.6775 86.3537 25.0243 86.9969C26.5448 87.7258 28.2392 88.4976 29.8466 88.4976C55.0878 88.5834 80.3725 88.5834 105.614 88.6263C107.265 88.6263 107.699 88.1117 107.656 86.5681C107.612 68.7304 107.612 50.8498 107.656 33.0121C107.656 31.9401 107.482 31.2112 106.396 30.6109C105.831 30.3107 105.31 29.0672 105.483 28.5098C105.701 27.7808 106.613 26.9233 107.351 26.7946C108.785 26.4087 110.349 26.6231 112 26.6231Z" fill="url(#paint1_linear)"/>
<path d="M102.963 17.8329C102.963 39.9585 102.963 61.9126 102.963 84.1239C102.095 84.1239 101.313 84.1239 100.531 84.1239C74.0294 84.1239 47.5283 84.0811 21.0706 84.1239C18.2033 84.1239 15.6401 83.5665 13.3375 81.8085C12.1645 80.908 11.5998 79.7503 12.5121 78.4639C13.4244 77.1775 14.5974 77.4348 15.9442 78.1209C17.3779 78.8498 19.0288 79.6216 20.5493 79.6216C46.0946 79.7074 71.64 79.7074 97.1853 79.7074C97.5329 79.7074 97.8804 79.6645 98.4887 79.6216C98.5321 78.8498 98.5755 78.1209 98.5755 77.349C98.5755 59.7686 98.5755 42.1882 98.5755 24.6078C98.5755 23.4071 98.7059 22.2923 97.2288 21.6062C96.7074 21.3918 96.3164 20.0626 96.5337 19.4194C96.7074 18.7762 97.6198 18.0044 98.3149 17.9186C99.8354 17.6613 101.356 17.8329 102.963 17.8329Z" fill="#2760CE"/>
<path d="M102.963 17.8329C102.963 39.9585 102.963 61.9126 102.963 84.1239C102.095 84.1239 101.313 84.1239 100.531 84.1239C74.0294 84.1239 47.5283 84.0811 21.0706 84.1239C18.2033 84.1239 15.6401 83.5665 13.3375 81.8085C12.1645 80.908 11.5998 79.7503 12.5121 78.4639C13.4244 77.1775 14.5974 77.4348 15.9442 78.1209C17.3779 78.8498 19.0288 79.6216 20.5493 79.6216C46.0946 79.7074 71.64 79.7074 97.1853 79.7074C97.5329 79.7074 97.8804 79.6645 98.4887 79.6216C98.5321 78.8498 98.5755 78.1209 98.5755 77.349C98.5755 59.7686 98.5755 42.1882 98.5755 24.6078C98.5755 23.4071 98.7059 22.2923 97.2288 21.6062C96.7074 21.3918 96.3164 20.0626 96.5337 19.4194C96.7074 18.7762 97.6198 18.0044 98.3149 17.9186C99.8354 17.6613 101.356 17.8329 102.963 17.8329Z" fill="url(#paint2_linear)"/>
<path d="M58.3027 46.7763C62.2996 43.0458 66.0793 39.5297 70.2065 35.6706C68.4687 34.2556 66.8178 32.9692 65.2104 31.6828C65.3407 31.4684 65.4711 31.2969 65.6014 31.0825C69.7721 31.0825 73.9862 31.0825 78.3306 31.0825C78.3306 35.2418 78.3306 39.4011 78.3306 43.5603C78.2003 43.6461 78.0265 43.7747 77.8962 43.8605C76.506 42.1453 75.1157 40.473 73.6386 38.6292C68.2081 43.689 63.2988 48.277 58.1289 53.0366C54.3927 49.1775 50.6999 45.3613 46.9203 41.4593C42.7062 45.3613 38.6224 49.1775 34.3648 53.1224C33.3222 52.0504 32.4098 51.1071 31.2803 49.9064C36.5805 44.9753 41.7938 40.0871 47.094 35.156C50.8737 39.1009 54.5231 42.8743 58.3027 46.7763Z" fill="#2760CE"/>
<path d="M58.3027 46.7763C62.2996 43.0458 66.0793 39.5297 70.2065 35.6706C68.4687 34.2556 66.8178 32.9692 65.2104 31.6828C65.3407 31.4684 65.4711 31.2969 65.6014 31.0825C69.7721 31.0825 73.9862 31.0825 78.3306 31.0825C78.3306 35.2418 78.3306 39.4011 78.3306 43.5603C78.2003 43.6461 78.0265 43.7747 77.8962 43.8605C76.506 42.1453 75.1157 40.473 73.6386 38.6292C68.2081 43.689 63.2988 48.277 58.1289 53.0366C54.3927 49.1775 50.6999 45.3613 46.9203 41.4593C42.7062 45.3613 38.6224 49.1775 34.3648 53.1224C33.3222 52.0504 32.4098 51.1071 31.2803 49.9064C36.5805 44.9753 41.7938 40.0871 47.094 35.156C50.8737 39.1009 54.5231 42.8743 58.3027 46.7763Z" fill="url(#paint3_linear)"/>
<defs>
<linearGradient id="paint0_linear" x1="47.0069" y1="0" x2="47.0069" y2="75.3344" gradientUnits="userSpaceOnUse">
<stop stop-color="#22949B"/>
<stop offset="1" stop-color="#1FB1BA" stop-opacity="0"/>
</linearGradient>
<linearGradient id="paint1_linear" x1="66.52" y1="26.5637" x2="66.52" y2="92.9999" gradientUnits="userSpaceOnUse">
<stop stop-color="#22949B"/>
<stop offset="1" stop-color="#1FB1BA" stop-opacity="0"/>
</linearGradient>
<linearGradient id="paint2_linear" x1="57.5115" y1="17.7769" x2="57.5115" y2="84.1239" gradientUnits="userSpaceOnUse">
<stop stop-color="#22949B"/>
<stop offset="1" stop-color="#1FB1BA" stop-opacity="0"/>
</linearGradient>
<linearGradient id="paint3_linear" x1="54.8054" y1="31.0825" x2="54.8054" y2="53.1224" gradientUnits="userSpaceOnUse">
<stop stop-color="#22949B"/>
<stop offset="1" stop-color="#1FB1BA" stop-opacity="0"/>
</linearGradient>
</defs>
</svg>
