<svg width="100" height="93" viewBox="0 0 100 93" fill="none" xmlns="http://www.w3.org/2000/svg">
<path d="M97.9661 56.3365C97.9661 54.5481 97.4011 52.7596 96.3842 51.3065C98.5311 49.6298 100 47.0589 100 44.1526C100 39.2344 95.9322 35.2103 91.0734 35.2103H69.1525L70.9604 25.1502C71.1864 23.6971 71.4124 22.1322 71.4124 20.5673C71.4124 17.3257 70.8475 14.0841 69.6045 11.0661L67.3446 5.58894C67.3446 5.47716 67.2316 5.36539 67.1186 5.25361C65.6497 2.1238 62.4859 0 58.8701 0C53.8983 0 49.8305 4.02404 49.8305 8.94231V14.1959C49.8305 18.5553 48.4746 22.5793 45.9887 26.1563L32.8814 44.0409C32.0904 43.1466 30.9605 42.5877 29.7175 42.5877H4.18079C1.9209 42.5877 0 44.488 0 46.7236V88.8642C0 91.0998 1.9209 93 4.18079 93H29.7175C31.9774 93 33.8983 91.0998 33.8983 88.8642V85.1755C35.0283 85.5108 36.1582 86.1815 37.4011 86.7404C40 88.0817 43.0508 89.6466 47.0056 89.6466H84.8588C89.8305 89.6466 93.8983 85.6226 93.8983 80.7043C93.8983 78.9159 93.3333 77.2392 92.4294 75.7861C94.5763 74.1094 96.0452 71.5385 96.0452 68.6322C96.0452 66.8438 95.4802 65.1671 94.4633 63.714C96.4972 61.9255 97.9661 59.3546 97.9661 56.3365ZM28.1356 87.2993H5.53672V48.0649H28.1356V87.2993ZM84.7458 83.9459H46.8927C44.2938 83.9459 42.2599 82.9399 39.887 81.7103C38.0791 80.8161 36.1582 79.8101 33.7853 79.2512V52.2007L50.3955 29.5096C50.3955 29.5096 50.3955 29.5096 50.3955 29.3978L50.6215 29.0625C50.6215 28.9507 50.7345 28.9507 50.7345 28.8389C53.5593 24.8149 55.0282 20.1202 55.2542 15.3137C55.2542 15.2019 55.2542 14.9784 55.2542 14.8666V8.94231C55.2542 7.04207 56.8362 5.58894 58.6441 5.58894C60.113 5.58894 61.3559 6.48317 61.9209 7.82452L64.0678 13.1899C64.9717 15.5373 65.5367 18.1082 65.5367 20.6791C65.5367 21.9087 65.4237 23.0264 65.1977 24.256L62.8249 37.6695C62.8249 37.7813 62.8249 37.893 62.8249 37.893C62.8249 38.0048 62.8249 38.0048 62.8249 38.1166C62.8249 38.2284 62.8249 38.3401 62.8249 38.4519C62.8249 38.5637 62.8249 38.5637 62.8249 38.6755C62.8249 38.7873 62.9378 38.899 62.9378 39.0108C62.9378 39.1226 62.9379 39.1226 63.0508 39.2344C63.0508 39.3462 63.1638 39.3462 63.1638 39.4579C63.1638 39.5697 63.2768 39.5697 63.2768 39.6815C63.2768 39.7933 63.3898 39.7933 63.5028 39.9051C63.6158 40.0168 63.6158 40.0168 63.7288 40.1286C63.8418 40.2404 63.8418 40.2404 63.9548 40.3522C64.0678 40.3522 64.0678 40.4639 64.1808 40.4639C64.2938 40.4639 64.2938 40.5757 64.4068 40.5757C64.5198 40.5757 64.5198 40.6875 64.6328 40.6875C64.7458 40.6875 64.7458 40.6875 64.8588 40.7993C64.9717 40.7993 65.0847 40.9111 65.1977 40.9111C65.3107 40.9111 65.5367 40.9111 65.6497 40.9111H90.8475C92.7684 40.9111 94.2373 42.476 94.2373 44.2644C94.2373 46.0529 92.6554 47.6178 90.8475 47.6178C90.6215 47.6178 90.3955 47.6178 90.1695 47.7296C90.0565 47.7296 89.9435 47.8414 89.8305 47.8414C89.0396 48.1767 88.4746 48.7356 88.1356 49.518C87.5706 50.9712 88.3616 52.5361 89.8305 53.095C91.2994 53.5421 92.2034 54.8834 92.2034 56.3365C92.2034 58.2368 90.6215 59.8017 88.7006 59.8017H88.5876C87.3446 59.8017 86.2147 60.5841 85.7627 61.8137C85.3107 63.2668 86.2147 64.8317 87.6836 65.2788C89.1525 65.726 90.0565 67.0673 90.0565 68.5204C90.0565 70.3089 88.5876 71.8738 86.6667 71.8738C85.7627 71.8738 85.0847 72.3209 84.5198 72.8798L84.4068 72.9916C84.4068 72.9916 84.4068 73.1034 84.2938 73.1034C84.1808 73.3269 83.9548 73.5505 83.8418 73.8858C83.3898 75.3389 84.1808 76.9038 85.6497 77.4627C87.0056 77.9099 87.9096 79.1394 87.9096 80.5926C88.1356 82.381 86.6667 83.9459 84.7458 83.9459Z" fill="#2760CE"/>
<path d="M97.9661 56.3365C97.9661 54.5481 97.4011 52.7596 96.3842 51.3065C98.5311 49.6298 100 47.0589 100 44.1526C100 39.2344 95.9322 35.2103 91.0734 35.2103H69.1525L70.9604 25.1502C71.1864 23.6971 71.4124 22.1322 71.4124 20.5673C71.4124 17.3257 70.8475 14.0841 69.6045 11.0661L67.3446 5.58894C67.3446 5.47716 67.2316 5.36539 67.1186 5.25361C65.6497 2.1238 62.4859 0 58.8701 0C53.8983 0 49.8305 4.02404 49.8305 8.94231V14.1959C49.8305 18.5553 48.4746 22.5793 45.9887 26.1563L32.8814 44.0409C32.0904 43.1466 30.9605 42.5877 29.7175 42.5877H4.18079C1.9209 42.5877 0 44.488 0 46.7236V88.8642C0 91.0998 1.9209 93 4.18079 93H29.7175C31.9774 93 33.8983 91.0998 33.8983 88.8642V85.1755C35.0283 85.5108 36.1582 86.1815 37.4011 86.7404C40 88.0817 43.0508 89.6466 47.0056 89.6466H84.8588C89.8305 89.6466 93.8983 85.6226 93.8983 80.7043C93.8983 78.9159 93.3333 77.2392 92.4294 75.7861C94.5763 74.1094 96.0452 71.5385 96.0452 68.6322C96.0452 66.8438 95.4802 65.1671 94.4633 63.714C96.4972 61.9255 97.9661 59.3546 97.9661 56.3365ZM28.1356 87.2993H5.53672V48.0649H28.1356V87.2993ZM84.7458 83.9459H46.8927C44.2938 83.9459 42.2599 82.9399 39.887 81.7103C38.0791 80.8161 36.1582 79.8101 33.7853 79.2512V52.2007L50.3955 29.5096C50.3955 29.5096 50.3955 29.5096 50.3955 29.3978L50.6215 29.0625C50.6215 28.9507 50.7345 28.9507 50.7345 28.8389C53.5593 24.8149 55.0282 20.1202 55.2542 15.3137C55.2542 15.2019 55.2542 14.9784 55.2542 14.8666V8.94231C55.2542 7.04207 56.8362 5.58894 58.6441 5.58894C60.113 5.58894 61.3559 6.48317 61.9209 7.82452L64.0678 13.1899C64.9717 15.5373 65.5367 18.1082 65.5367 20.6791C65.5367 21.9087 65.4237 23.0264 65.1977 24.256L62.8249 37.6695C62.8249 37.7813 62.8249 37.893 62.8249 37.893C62.8249 38.0048 62.8249 38.0048 62.8249 38.1166C62.8249 38.2284 62.8249 38.3401 62.8249 38.4519C62.8249 38.5637 62.8249 38.5637 62.8249 38.6755C62.8249 38.7873 62.9378 38.899 62.9378 39.0108C62.9378 39.1226 62.9379 39.1226 63.0508 39.2344C63.0508 39.3462 63.1638 39.3462 63.1638 39.4579C63.1638 39.5697 63.2768 39.5697 63.2768 39.6815C63.2768 39.7933 63.3898 39.7933 63.5028 39.9051C63.6158 40.0168 63.6158 40.0168 63.7288 40.1286C63.8418 40.2404 63.8418 40.2404 63.9548 40.3522C64.0678 40.3522 64.0678 40.4639 64.1808 40.4639C64.2938 40.4639 64.2938 40.5757 64.4068 40.5757C64.5198 40.5757 64.5198 40.6875 64.6328 40.6875C64.7458 40.6875 64.7458 40.6875 64.8588 40.7993C64.9717 40.7993 65.0847 40.9111 65.1977 40.9111C65.3107 40.9111 65.5367 40.9111 65.6497 40.9111H90.8475C92.7684 40.9111 94.2373 42.476 94.2373 44.2644C94.2373 46.0529 92.6554 47.6178 90.8475 47.6178C90.6215 47.6178 90.3955 47.6178 90.1695 47.7296C90.0565 47.7296 89.9435 47.8414 89.8305 47.8414C89.0396 48.1767 88.4746 48.7356 88.1356 49.518C87.5706 50.9712 88.3616 52.5361 89.8305 53.095C91.2994 53.5421 92.2034 54.8834 92.2034 56.3365C92.2034 58.2368 90.6215 59.8017 88.7006 59.8017H88.5876C87.3446 59.8017 86.2147 60.5841 85.7627 61.8137C85.3107 63.2668 86.2147 64.8317 87.6836 65.2788C89.1525 65.726 90.0565 67.0673 90.0565 68.5204C90.0565 70.3089 88.5876 71.8738 86.6667 71.8738C85.7627 71.8738 85.0847 72.3209 84.5198 72.8798L84.4068 72.9916C84.4068 72.9916 84.4068 73.1034 84.2938 73.1034C84.1808 73.3269 83.9548 73.5505 83.8418 73.8858C83.3898 75.3389 84.1808 76.9038 85.6497 77.4627C87.0056 77.9099 87.9096 79.1394 87.9096 80.5926C88.1356 82.381 86.6667 83.9459 84.7458 83.9459Z" fill="url(#paint0_linear)"/>
<defs>
<linearGradient id="paint0_linear" x1="50" y1="0" x2="50" y2="93" gradientUnits="userSpaceOnUse">
<stop stop-color="#22949B"/>
<stop offset="1" stop-color="#1FB1BA" stop-opacity="0"/>
</linearGradient>
</defs>
</svg>
