<svg width="29" height="29" viewBox="0 0 29 29" fill="none" xmlns="http://www.w3.org/2000/svg">
<path d="M20.8104 28.2262H8.19521C4.10364 28.2262 0.773438 24.896 0.773438 20.8044V8.19545C0.773438 4.10388 4.10364 0.773682 8.19521 0.773682H20.8104C24.9019 0.773682 28.2321 4.10388 28.2321 8.19545V20.8106C28.2259 24.9022 24.9019 28.2262 20.8104 28.2262ZM8.19521 1.94359C4.7474 1.94359 1.94953 4.74764 1.94953 8.18926V20.8044C1.94953 24.2522 4.75359 27.0501 8.19521 27.0501H20.8104C24.2582 27.0501 27.056 24.246 27.056 20.8044V8.19545C27.056 4.74764 24.252 1.94978 20.8104 1.94978H8.19521V1.94359Z" fill="#F5F5F5"/>
<path d="M14.503 22.971C9.82961 22.971 6.03516 19.1704 6.03516 14.5031C6.03516 9.83588 9.82961 6.02905 14.503 6.02905C19.1765 6.02905 22.9709 9.82969 22.9709 14.4969C22.9709 19.1642 19.1703 22.971 14.503 22.971ZM14.503 7.19896C10.4796 7.19896 7.20506 10.4735 7.20506 14.4969C7.20506 18.5204 10.4796 21.7949 14.503 21.7949C18.5265 21.7949 21.801 18.5204 21.801 14.4969C21.801 10.4735 18.5265 7.19896 14.503 7.19896Z" fill="#F5F5F5"/>
<path d="M24.314 6.33228C24.314 7.04412 23.7383 7.62598 23.0203 7.62598C22.3084 7.62598 21.7266 7.05031 21.7266 6.33228C21.7266 5.62043 22.3022 5.03857 23.0203 5.03857C23.7321 5.03857 24.314 5.62043 24.314 6.33228Z" fill="#F5F5F5"/>
</svg>
