<svg width="32" height="29" viewBox="0 0 32 29" fill="none" xmlns="http://www.w3.org/2000/svg">
<path d="M28.2708 9.37953C28.2708 9.54547 28.2708 9.71141 28.2708 9.87735C28.2708 13.7329 28.2708 17.5874 28.2708 21.4429C28.2708 23.4373 27.2129 24.5241 25.2154 24.5671C24.3067 24.5866 23.398 24.5712 22.4893 24.5938C21.5724 24.6173 20.7512 24.9348 19.9958 25.446C18.4779 26.4713 16.9548 27.4885 15.4348 28.5107C14.4582 29.1673 13.8263 29.1632 12.8374 28.4974C11.3318 27.4844 9.82003 26.4816 8.32166 25.4583C7.39547 24.8252 6.37357 24.564 5.2642 24.5681C4.42445 24.5712 3.58264 24.5886 2.74392 24.5456C1.16219 24.4657 0.162933 23.5172 0.0456152 21.9387C-0.0253929 20.9881 0.00959678 20.0284 0.00959678 19.0727C0.00650947 15.5562 0.00856746 12.0397 0.00856746 8.5232C0.00856746 8.4894 0.00856768 8.45457 0.00959678 8.42077C0.0240042 6.00747 1.0459 4.9852 3.45606 4.98418C9.79945 4.98315 16.1449 4.98418 22.4903 4.98315C22.6776 4.98315 22.8649 4.98315 23.1675 4.98315C22.8876 5.43181 22.6766 5.83539 22.3967 6.18263C22.301 6.30145 22.0324 6.31784 21.842 6.31784C16.3373 6.32501 10.8316 6.32296 5.32697 6.32296C4.6066 6.32296 3.88623 6.31682 3.16586 6.33116C1.89183 6.35574 1.39065 6.86073 1.37933 8.11552C1.37316 8.76392 1.38654 9.41334 1.37522 10.0617C1.35258 11.3216 1.28877 12.5816 1.29392 13.8404C1.30524 16.4494 1.3464 19.0583 1.38345 21.6662C1.39786 22.6475 1.92579 23.1833 2.91475 23.214C4.04471 23.2488 5.17878 23.2232 6.30565 23.2918C7.31828 23.3533 8.22595 23.763 9.06467 24.3284C10.5836 25.3517 12.1139 26.3587 13.6215 27.3973C14.0085 27.6636 14.2966 27.6534 14.6795 27.3891C16.1593 26.3689 17.668 25.3917 19.1509 24.3756C20.2912 23.594 21.5384 23.2058 22.9195 23.2222C23.5884 23.2294 24.2573 23.2263 24.9262 23.2222C26.4761 23.2119 26.9237 22.7664 26.9248 21.2401C26.9258 18.1846 26.934 15.129 26.9165 12.0735C26.9134 11.5583 27.0019 11.1117 27.3127 10.6886C27.6245 10.2635 27.8808 9.7995 28.1617 9.35188C28.1978 9.3611 28.2348 9.37031 28.2708 9.37953Z" fill="#FFD600"/>
<path d="M26.3778 2.4491C27.4604 3.12617 28.5297 3.79403 29.6174 4.47418C28.0388 7.00322 26.455 9.4749 24.9433 11.9906C24.0891 13.4114 23.0857 14.6631 21.7253 15.627C21.223 15.9824 20.7754 16.4136 20.2701 16.7629C20.1034 16.8777 19.7813 16.935 19.6249 16.849C19.487 16.7732 19.3923 16.4423 19.4304 16.2549C19.7082 14.8905 20.0221 13.5333 20.3339 12.176C20.3679 12.0306 20.4471 11.8902 20.5274 11.7612C22.4075 8.74661 24.2908 5.73511 26.1751 2.72259C26.2276 2.63655 26.2945 2.55972 26.3778 2.4491ZM21.258 12.3604C21.114 12.9719 20.9658 13.5271 20.866 14.0905C20.8454 14.2062 20.9802 14.4009 21.0965 14.4756C21.2097 14.5473 21.4422 14.5801 21.5359 14.5125C22.0072 14.1663 22.4508 13.7822 22.9396 13.3817C22.3561 13.0262 21.8385 12.7128 21.258 12.3604Z" fill="#FFD600"/>
<path d="M14.1656 18.5175C16.9772 18.5175 19.7897 18.5165 22.6012 18.5185C22.7885 18.5185 22.9851 18.5062 23.1631 18.5523C23.5037 18.6425 23.7301 18.9047 23.6272 19.2345C23.5552 19.464 23.2989 19.6525 23.089 19.8143C23.0015 19.8819 22.8235 19.8358 22.6866 19.8358C16.9936 19.8358 11.3016 19.8358 5.60865 19.8358C5.47178 19.8358 5.33285 19.843 5.19804 19.8225C4.84403 19.7682 4.59498 19.5316 4.65158 19.2018C4.69172 18.9651 4.92532 18.7326 5.12703 18.5636C5.232 18.4755 5.45634 18.5196 5.62614 18.5196C8.47264 18.5165 11.3191 18.5175 14.1656 18.5175Z" fill="#FFD600"/>
<path d="M20.1192 9.85288C19.8825 10.2349 19.687 10.6139 19.4256 10.9397C19.3268 11.0616 19.0747 11.1087 18.8915 11.1097C15.2423 11.1189 11.5931 11.1169 7.94495 11.1169C7.1052 11.1169 6.26648 11.123 5.42673 11.1179C4.92453 11.1148 4.61992 10.8536 4.62506 10.4552C4.63021 10.0741 4.92453 9.80473 5.39175 9.80473C10.2398 9.80064 15.0879 9.80269 19.9361 9.80473C19.9793 9.80473 20.0246 9.82727 20.1192 9.85288Z" fill="#FFD600"/>
<path d="M18.4625 14.1539C18.3442 14.6507 18.2464 15.0594 18.1558 15.4394C16.395 15.4394 14.6826 15.4333 12.9702 15.4415C11.0653 15.4507 9.16045 15.4743 7.25661 15.4886C6.62989 15.4937 6.00213 15.505 5.37644 15.4866C4.76927 15.4681 4.42246 14.9314 4.73325 14.4868C4.83513 14.3414 5.05845 14.198 5.22825 14.1959C7.12283 14.1703 9.01741 14.1652 10.912 14.1693C13.0278 14.1744 15.1437 14.199 17.2595 14.2072C17.631 14.2082 18.0035 14.1744 18.4625 14.1539Z" fill="#FFD600"/>
<path d="M30.1261 3.68235C29.0116 2.99503 27.9526 2.34151 26.834 1.65112C27.1232 1.21066 27.3691 0.76611 27.683 0.375844C28.0308 -0.0564184 28.5248 -0.108659 29.0219 0.182248C29.5086 0.467009 29.9892 0.765086 30.4626 1.07341C31.006 1.42782 31.1449 1.91027 30.8485 2.48492C30.6458 2.87826 30.3926 3.24496 30.1261 3.68235Z" fill="#FFD600"/>
</svg>
